<svg width="24" height="24" viewBox="0 0 24 24" fill="none" xmlns="http://www.w3.org/2000/svg">
<path d="M4.00005 13V19C4.00005 19.5523 4.44776 20 5.00005 20H19C19.5523 20 20 19.5523 20 19V13M4.00005 13H20M4.00005 13L6.00005 8.00002M4.00005 13L2.6031 7.41224C2.53725 7.14882 2.58134 6.86995 2.72525 6.6397L4.66637 3.5339C4.78631 3.34201 5.07914 3.39548 5.12352 3.61737L6.00005 8.00002M20 13L18 8.00002M20 13L21.397 7.41224C21.4628 7.14882 21.4188 6.86995 21.2749 6.6397L19.3337 3.5339C19.2138 3.34201 18.921 3.39548 18.8766 3.61737L18 8.00002M6.00005 8.00002H18" stroke="black" stroke-linejoin="round"/>
</svg>
