<svg width="24" height="24" viewBox="0 0 24 24" fill="none" xmlns="http://www.w3.org/2000/svg">
<path fill-rule="evenodd" clip-rule="evenodd" d="M10.0435 19.1522C9.76735 19.1522 9.54349 18.9283 9.54349 18.6522L9.54349 15.1636L5.70139 19.0057C5.50613 19.201 5.18955 19.201 4.99429 19.0057C4.79902 18.8105 4.79902 18.4939 4.99429 18.2986L8.83638 14.4565L5.34785 14.4565C5.07171 14.4565 4.84785 14.2327 4.84785 13.9565C4.84785 13.6804 5.07171 13.4565 5.34785 13.4565L10.0435 13.4565C10.3196 13.4565 10.5435 13.6804 10.5435 13.9565L10.5435 18.6522C10.5435 18.9283 10.3196 19.1522 10.0435 19.1522ZM13.9565 19.1522C13.6804 19.1522 13.4565 18.9283 13.4565 18.6522L13.4565 13.9565C13.4565 13.6804 13.6804 13.4565 13.9565 13.4565L18.6522 13.4565C18.9283 13.4565 19.1522 13.6804 19.1522 13.9565C19.1522 14.2327 18.9283 14.4565 18.6522 14.4565L15.1636 14.4565L19.0057 18.2986C19.2009 18.4938 19.2009 18.8104 19.0057 19.0057C18.8104 19.2009 18.4938 19.2009 18.2986 19.0057L14.4565 15.1636L14.4565 18.6522C14.4565 18.9283 14.2327 19.1522 13.9565 19.1522ZM10.397 10.3971C10.3033 10.4908 10.1761 10.5435 10.0435 10.5435L5.34784 10.5435C5.0717 10.5435 4.84784 10.3196 4.84784 10.0435C4.84784 9.76735 5.0717 9.5435 5.34784 9.5435L8.83638 9.5435L4.99426 5.70138C4.799 5.50612 4.799 5.18953 4.99426 4.99427C5.18952 4.79901 5.5061 4.79901 5.70137 4.99427L9.54349 8.83639L9.54349 5.34785C9.54349 5.07171 9.76735 4.84785 10.0435 4.84785C10.3196 4.84785 10.5435 5.07171 10.5435 5.34785L10.5435 10.0435C10.5435 10.1761 10.4908 10.3033 10.397 10.3971ZM19.1522 10.0435C19.1522 10.3196 18.9283 10.5435 18.6522 10.5435L13.9565 10.5435C13.8239 10.5435 13.6967 10.4908 13.603 10.397C13.5092 10.3033 13.4565 10.1761 13.4565 10.0435L13.4565 5.34783C13.4565 5.07169 13.6804 4.84783 13.9565 4.84783C14.2327 4.84783 14.4565 5.07169 14.4565 5.34783L14.4565 8.83637L18.2986 4.99428C18.4939 4.79902 18.8104 4.79902 19.0057 4.99428C19.201 5.18954 19.201 5.50613 19.0057 5.70139L15.1636 9.54348L18.6522 9.54348C18.9283 9.54348 19.1522 9.76734 19.1522 10.0435Z" fill="black"/>
</svg>
