<svg width="24" height="24" viewBox="0 0 24 24" fill="none" xmlns="http://www.w3.org/2000/svg">
<path fill-rule="evenodd" clip-rule="evenodd" d="M15.1492 3.64367C15.346 3.44996 15.6626 3.45245 15.8563 3.64924L20.3563 8.22067C20.5479 8.41528 20.5479 8.72758 20.3563 8.92219L15.8563 13.4936C15.6626 13.6904 15.346 13.6929 15.1492 13.4992C14.9524 13.3055 14.95 12.9889 15.1437 12.7921L18.8062 9.07143H10C7.51472 9.07143 5.5 11.0861 5.5 13.5714V20C5.5 20.2761 5.27614 20.5 5 20.5C4.72386 20.5 4.5 20.2761 4.5 20V13.5714C4.5 10.5339 6.96243 8.07143 10 8.07143H18.8062L15.1437 4.35076C14.95 4.15397 14.9524 3.83739 15.1492 3.64367Z" fill="black"/>
</svg>
