<svg width="24" height="24" viewBox="0 0 24 24" fill="none" xmlns="http://www.w3.org/2000/svg">
<path fill-rule="evenodd" clip-rule="evenodd" d="M4 4.5C4.27614 4.5 4.5 4.72386 4.5 5V19C4.5 19.2761 4.27614 19.5 4 19.5C3.72386 19.5 3.5 19.2761 3.5 19V5C3.5 4.72386 3.72386 4.5 4 4.5ZM13.6464 4.64645C13.8417 4.45118 14.1583 4.45118 14.3536 4.64645C14.5488 4.84171 14.5488 5.15829 14.3536 5.35355L7.70711 12L14.3536 18.6464C14.5488 18.8417 14.5488 19.1583 14.3536 19.3536C14.1583 19.5488 13.8417 19.5488 13.6464 19.3536L6.64645 12.3536C6.45118 12.1583 6.45118 11.8417 6.64645 11.6464L13.6464 4.64645ZM19.6464 4.64645C19.8417 4.45118 20.1583 4.45118 20.3536 4.64645C20.5488 4.84171 20.5488 5.15829 20.3536 5.35355L13.7071 12L20.3536 18.6464C20.5488 18.8417 20.5488 19.1583 20.3536 19.3536C20.1583 19.5488 19.8417 19.5488 19.6464 19.3536L12.6464 12.3536C12.4512 12.1583 12.4512 11.8417 12.6464 11.6464L19.6464 4.64645Z" fill="black"/>
</svg>
