<svg width="24" height="24" viewBox="0 0 24 24" fill="none" xmlns="http://www.w3.org/2000/svg">
<path fill-rule="evenodd" clip-rule="evenodd" d="M8.85076 3.64367C9.04755 3.83739 9.05005 4.15397 8.85633 4.35076L5.19379 8.07143H14C17.0376 8.07143 19.5 10.5339 19.5 13.5714V20C19.5 20.2761 19.2761 20.5 19 20.5C18.7239 20.5 18.5 20.2761 18.5 20V13.5714C18.5 11.0861 16.4853 9.07143 14 9.07143H5.19379L8.85633 12.7921C9.05005 12.9889 9.04755 13.3055 8.85076 13.4992C8.65396 13.6929 8.33739 13.6904 8.14367 13.4936L3.64367 8.92219C3.45211 8.72758 3.45211 8.41528 3.64367 8.22067L8.14367 3.64924C8.33739 3.45245 8.65396 3.44996 8.85076 3.64367Z" fill="black"/>
</svg>
