<svg width="24" height="24" viewBox="0 0 24 24" fill="none" xmlns="http://www.w3.org/2000/svg">
<path fill-rule="evenodd" clip-rule="evenodd" d="M4.55085 11.7803C4.63475 11.6088 4.80904 11.5 5 11.5L8 11.5L8 3C8 2.72386 8.22386 2.5 8.5 2.5L15.5 2.5C15.7761 2.5 16 2.72386 16 3L16 11.5L19 11.5C19.191 11.5 19.3653 11.6088 19.4492 11.7803C19.5331 11.9519 19.5119 12.1562 19.3947 12.307L12.3947 21.307C12.3 21.4288 12.1543 21.5 12 21.5C11.8457 21.5 11.7001 21.4288 11.6053 21.307L4.60533 12.307C4.48809 12.1562 4.46694 11.9519 4.55085 11.7803ZM12 20.1856L17.9777 12.5L15.5 12.5C15.2239 12.5 15 12.2761 15 12L15 3.5L9 3.5L9 12C9 12.2761 8.77615 12.5 8.5 12.5L6.02232 12.5L12 20.1856Z" fill="black"/>
</svg>
