<svg width="24" height="24" viewBox="0 0 24 24" fill="none" xmlns="http://www.w3.org/2000/svg">
<path fill-rule="evenodd" clip-rule="evenodd" d="M19.3536 12.3536C19.1583 12.5488 18.8417 12.5488 18.6464 12.3536L12 5.70711L5.35355 12.3536C5.15829 12.5488 4.84171 12.5488 4.64645 12.3536C4.45118 12.1583 4.45118 11.8417 4.64645 11.6464L11.6464 4.64645C11.8417 4.45118 12.1583 4.45118 12.3536 4.64645L19.3536 11.6464C19.5488 11.8417 19.5488 12.1583 19.3536 12.3536ZM19.3536 18.3536C19.1583 18.5488 18.8417 18.5488 18.6464 18.3536L12 11.7071L5.35355 18.3536C5.15829 18.5488 4.84171 18.5488 4.64645 18.3536C4.45118 18.1583 4.45118 17.8417 4.64645 17.6464L11.6464 10.6464C11.8417 10.4512 12.1583 10.4512 12.3536 10.6464L19.3536 17.6464C19.5488 17.8417 19.5488 18.1583 19.3536 18.3536Z" fill="black"/>
</svg>
