<svg width="24" height="24" viewBox="0 0 24 24" fill="none" xmlns="http://www.w3.org/2000/svg">
<path fill-rule="evenodd" clip-rule="evenodd" d="M8.22067 2.64367C8.41528 2.45211 8.72758 2.45211 8.92219 2.64367L13.4936 7.14367C13.6904 7.33739 13.6929 7.65396 13.4992 7.85076C13.3055 8.04755 12.9889 8.05005 12.7921 7.85633L9.07143 4.19379L9.07143 15.2857C9.07143 18.1655 11.4059 20.5 14.2857 20.5C17.1655 20.5 19.5 18.1655 19.5 15.2857V9.75C19.5 9.47386 19.7239 9.25 20 9.25C20.2761 9.25 20.5 9.47386 20.5 9.75V15.2857C20.5 18.7178 17.7178 21.5 14.2857 21.5C10.8537 21.5 8.07143 18.7178 8.07143 15.2857L8.07143 4.19379L4.35076 7.85633C4.15397 8.05005 3.83739 8.04755 3.64367 7.85076C3.44996 7.65396 3.45245 7.33739 3.64924 7.14367L8.22067 2.64367Z" fill="black"/>
</svg>
