<svg width="24" height="24" viewBox="0 0 24 24" fill="none" xmlns="http://www.w3.org/2000/svg">
<path fill-rule="evenodd" clip-rule="evenodd" d="M18.5 18C18.5 18.2761 18.2761 18.5 18 18.5L8 18.5C7.72386 18.5 7.5 18.2761 7.5 18C7.5 17.7239 7.72386 17.5 8 17.5L17.5 17.5L17.5 8C17.5 7.72386 17.7239 7.5 18 7.5C18.2761 7.5 18.5 7.72386 18.5 8L18.5 18ZM14.5 14C14.5 14.2761 14.2761 14.5 14 14.5L4 14.5C3.72386 14.5 3.5 14.2761 3.5 14C3.5 13.7239 3.72386 13.5 4 13.5L13.5 13.5L13.5 4C13.5 3.72386 13.7239 3.5 14 3.5C14.2761 3.5 14.5 3.72386 14.5 4L14.5 14Z" fill="black"/>
</svg>
