<svg width="24" height="24" viewBox="0 0 24 24" fill="none" xmlns="http://www.w3.org/2000/svg">
<path fill-rule="evenodd" clip-rule="evenodd" d="M10.3536 19.3536C10.1583 19.5488 9.84171 19.5488 9.64645 19.3536C9.45118 19.1583 9.45118 18.8417 9.64645 18.6464L15.7929 12.5L3 12.5C2.72386 12.5 2.5 12.2761 2.5 12C2.5 11.7239 2.72386 11.5 3 11.5L15.7929 11.5L9.64645 5.35355C9.45119 5.15829 9.45119 4.84171 9.64645 4.64645C9.84171 4.45118 10.1583 4.45118 10.3536 4.64645L17.3536 11.6464C17.5488 11.8417 17.5488 12.1583 17.3536 12.3536L10.3536 19.3536ZM20 19.5C19.7239 19.5 19.5 19.2761 19.5 19L19.5 5C19.5 4.72386 19.7239 4.5 20 4.5C20.2761 4.5 20.5 4.72386 20.5 5L20.5 19C20.5 19.2761 20.2761 19.5 20 19.5Z" fill="black"/>
</svg>
