<svg width="24" height="24" viewBox="0 0 24 24" fill="none" xmlns="http://www.w3.org/2000/svg">
<path fill-rule="evenodd" clip-rule="evenodd" d="M12 3C12.1326 3 12.2598 3.05268 12.3536 3.14645L15.3536 6.14645C15.5488 6.34171 15.5488 6.65829 15.3536 6.85355C15.1583 7.04882 14.8417 7.04882 14.6464 6.85355L12.5 4.70711L12.5 11.5H19.2929L17.1465 9.35356C16.9512 9.1583 16.9512 8.84172 17.1465 8.64645C17.3417 8.45119 17.6583 8.45119 17.8536 8.64645L20.8536 11.6465C21.0488 11.8417 21.0488 12.1583 20.8536 12.3536L17.8536 15.3536C17.6583 15.5488 17.3417 15.5488 17.1465 15.3536C16.9512 15.1583 16.9512 14.8417 17.1465 14.6465L19.2929 12.5H12.5L12.5 19.2929L14.6464 17.1465C14.8417 16.9512 15.1583 16.9512 15.3536 17.1465C15.5488 17.3417 15.5488 17.6583 15.3536 17.8536L12.3536 20.8536C12.2598 20.9473 12.1326 21 12 21C11.8674 21 11.7402 20.9473 11.6464 20.8536L8.64645 17.8536C8.45119 17.6583 8.45119 17.3417 8.64645 17.1465C8.84171 16.9512 9.15829 16.9512 9.35355 17.1465L11.5 19.2929L11.5 12.5H4.70711L6.85355 14.6465C7.04882 14.8417 7.04882 15.1583 6.85355 15.3536C6.65829 15.5488 6.34171 15.5488 6.14645 15.3536L3.14645 12.3536C3.05268 12.2598 3 12.1326 3 12C3 11.8674 3.05268 11.7402 3.14645 11.6465L6.14645 8.64645C6.34171 8.45119 6.65829 8.45119 6.85355 8.64645C7.04882 8.84172 7.04882 9.1583 6.85355 9.35356L4.70711 11.5H11.5L11.5 4.7071L9.35356 6.85355C9.15829 7.04882 8.84171 7.04882 8.64645 6.85355C8.45119 6.65829 8.45119 6.34171 8.64645 6.14645L11.6465 3.14645C11.7402 3.05268 11.8674 3 12 3Z" fill="black"/>
</svg>
