<svg width="24" height="24" viewBox="0 0 24 24" fill="none" xmlns="http://www.w3.org/2000/svg">
<path fill-rule="evenodd" clip-rule="evenodd" d="M4.5 20C4.5 19.7239 4.72386 19.5 5 19.5L19 19.5C19.2761 19.5 19.5 19.7239 19.5 20C19.5 20.2761 19.2761 20.5 19 20.5L5 20.5C4.72386 20.5 4.5 20.2761 4.5 20ZM4.64645 10.3536C4.45118 10.1583 4.45118 9.84171 4.64645 9.64645C4.84171 9.45118 5.15829 9.45118 5.35355 9.64645L12 16.2929L18.6464 9.64645C18.8417 9.45118 19.1583 9.45118 19.3536 9.64645C19.5488 9.84171 19.5488 10.1583 19.3536 10.3536L12.3536 17.3536C12.1583 17.5488 11.8417 17.5488 11.6464 17.3536L4.64645 10.3536ZM4.64645 4.35355C4.45118 4.15829 4.45118 3.84171 4.64645 3.64645C4.84171 3.45119 5.15829 3.45119 5.35355 3.64645L12 10.2929L18.6464 3.64645C18.8417 3.45119 19.1583 3.45119 19.3536 3.64645C19.5488 3.84171 19.5488 4.15829 19.3536 4.35355L12.3536 11.3536C12.1583 11.5488 11.8417 11.5488 11.6464 11.3536L4.64645 4.35355Z" fill="black"/>
</svg>
