<svg width="24" height="24" viewBox="0 0 24 24" fill="none" xmlns="http://www.w3.org/2000/svg">
<path fill-rule="evenodd" clip-rule="evenodd" d="M18.8536 5.14645C18.9473 5.24021 19 5.36739 19 5.5L19 15.5C19 15.7761 18.7761 16 18.5 16C18.2239 16 18 15.7761 18 15.5L18 6.70711L5.85355 18.8536C5.65829 19.0488 5.34171 19.0488 5.14645 18.8536C4.95118 18.6583 4.95118 18.3417 5.14645 18.1464L17.2929 6L8.5 6C8.22386 6 8 5.77614 8 5.5C8 5.22386 8.22386 5 8.5 5L18.5 5C18.6326 5 18.7598 5.05268 18.8536 5.14645Z" fill="black"/>
</svg>
