<svg width="24" height="24" viewBox="0 0 24 24" fill="none" xmlns="http://www.w3.org/2000/svg">
<path fill-rule="evenodd" clip-rule="evenodd" d="M15.0778 3.64367C15.2724 3.45211 15.5847 3.45211 15.7793 3.64367L20.3508 8.14367C20.5476 8.33739 20.55 8.65396 20.3563 8.85076C20.1626 9.04755 19.846 9.05005 19.6492 8.85633L15.9286 5.19379V14C15.9286 17.0376 13.4661 19.5 10.4286 19.5L4 19.5C3.72386 19.5 3.5 19.2761 3.5 19C3.5 18.7239 3.72386 18.5 4 18.5L10.4286 18.5C12.9139 18.5 14.9286 16.4853 14.9286 14V5.19379L11.2079 8.85633C11.0111 9.05005 10.6945 9.04755 10.5008 8.85076C10.3071 8.65396 10.3096 8.33739 10.5064 8.14367L15.0778 3.64367Z" fill="black"/>
</svg>
