<svg width="24" height="24" viewBox="0 0 24 24" fill="none" xmlns="http://www.w3.org/2000/svg">
<path fill-rule="evenodd" clip-rule="evenodd" d="M12.2197 4.55084C12.3912 4.63474 12.5 4.80903 12.5 5V8L21 8C21.2761 8 21.5 8.22386 21.5 8.5V15.5C21.5 15.7761 21.2761 16 21 16L12.5 16V19C12.5 19.191 12.3912 19.3653 12.2197 19.4492C12.0481 19.5331 11.8438 19.5119 11.693 19.3947L2.69303 12.3947C2.57124 12.2999 2.5 12.1543 2.5 12C2.5 11.8457 2.57124 11.7001 2.69303 11.6053L11.693 4.60532C11.8438 4.48808 12.0481 4.46694 12.2197 4.55084ZM3.81441 12L11.5 17.9777V15.5C11.5 15.2239 11.7239 15 12 15L20.5 15V9L12 9C11.7239 9 11.5 8.77614 11.5 8.5V6.02232L3.81441 12Z" fill="black"/>
</svg>
