<svg width="24" height="24" viewBox="0 0 24 24" fill="none" xmlns="http://www.w3.org/2000/svg">
<path fill-rule="evenodd" clip-rule="evenodd" d="M3.5 5C3.5 4.72386 3.72386 4.5 4 4.5L10.4286 4.5C13.4661 4.5 15.9286 6.96243 15.9286 10V18.8062L19.6492 15.1437C19.846 14.95 20.1626 14.9524 20.3563 15.1492C20.55 15.346 20.5476 15.6626 20.3508 15.8563L15.7793 20.3563C15.5847 20.5479 15.2724 20.5479 15.0778 20.3563L10.5064 15.8563C10.3096 15.6626 10.3071 15.346 10.5008 15.1492C10.6945 14.9524 11.0111 14.95 11.2079 15.1437L14.9286 18.8062V10C14.9286 7.51472 12.9139 5.5 10.4286 5.5L4 5.5C3.72386 5.5 3.5 5.27614 3.5 5Z" fill="black"/>
</svg>
