<svg width="24" height="24" viewBox="0 0 24 24" fill="none" xmlns="http://www.w3.org/2000/svg">
<path fill-rule="evenodd" clip-rule="evenodd" d="M5 3.5C5.27614 3.5 5.5 3.72386 5.5 4V10.4286C5.5 12.9139 7.51472 14.9286 10 14.9286H18.8062L15.1437 11.2079C14.95 11.0111 14.9524 10.6945 15.1492 10.5008C15.346 10.3071 15.6626 10.3096 15.8563 10.5064L20.3563 15.0778C20.5479 15.2724 20.5479 15.5847 20.3563 15.7793L15.8563 20.3508C15.6626 20.5476 15.346 20.55 15.1492 20.3563C14.9524 20.1626 14.95 19.846 15.1437 19.6492L18.8062 15.9286H10C6.96243 15.9286 4.5 13.4661 4.5 10.4286V4C4.5 3.72386 4.72386 3.5 5 3.5Z" fill="black"/>
</svg>
