<svg width="24" height="24" viewBox="0 0 24 24" fill="none" xmlns="http://www.w3.org/2000/svg">
<path fill-rule="evenodd" clip-rule="evenodd" d="M8.22067 3.64367C8.41528 3.45211 8.72758 3.45211 8.92219 3.64367L13.4936 8.14367C13.6904 8.33739 13.6929 8.65396 13.4992 8.85076C13.3055 9.04755 12.9889 9.05004 12.7921 8.85633L9.07143 5.19379L9.07143 14C9.07143 16.4853 11.0861 18.5 13.5714 18.5L20 18.5C20.2761 18.5 20.5 18.7239 20.5 19C20.5 19.2761 20.2761 19.5 20 19.5L13.5714 19.5C10.5339 19.5 8.07143 17.0376 8.07143 14L8.07143 5.19379L4.35076 8.85633C4.15397 9.05004 3.83739 9.04755 3.64367 8.85076C3.44996 8.65396 3.45245 8.33739 3.64924 8.14367L8.22067 3.64367Z" fill="black"/>
</svg>
