<svg width="24" height="24" viewBox="0 0 24 24" fill="none" xmlns="http://www.w3.org/2000/svg">
<path fill-rule="evenodd" clip-rule="evenodd" d="M4.64645 11.6464C4.84171 11.4512 5.15829 11.4512 5.35355 11.6464L12 18.2929L18.6464 11.6464C18.8417 11.4512 19.1583 11.4512 19.3536 11.6464C19.5488 11.8417 19.5488 12.1583 19.3536 12.3536L12.3536 19.3536C12.1583 19.5488 11.8417 19.5488 11.6464 19.3536L4.64645 12.3536C4.45118 12.1583 4.45118 11.8417 4.64645 11.6464ZM4.64645 5.64645C4.84171 5.45118 5.15829 5.45118 5.35355 5.64645L12 12.2929L18.6464 5.64645C18.8417 5.45118 19.1583 5.45118 19.3536 5.64645C19.5488 5.84171 19.5488 6.15829 19.3536 6.35355L12.3536 13.3536C12.1583 13.5488 11.8417 13.5488 11.6464 13.3536L4.64645 6.35355C4.45118 6.15829 4.45118 5.84171 4.64645 5.64645Z" fill="black"/>
</svg>
