<svg width="24" height="24" viewBox="0 0 24 24" fill="none" xmlns="http://www.w3.org/2000/svg">
<path fill-rule="evenodd" clip-rule="evenodd" d="M13.5714 5.5C11.0861 5.5 9.07143 7.51472 9.07143 10L9.07143 18.8062L12.7921 15.1437C12.9889 14.95 13.3055 14.9524 13.4992 15.1492C13.6929 15.346 13.6904 15.6626 13.4936 15.8563L8.92219 20.3563C8.72758 20.5479 8.41528 20.5479 8.22067 20.3563L3.64924 15.8563C3.45245 15.6626 3.44996 15.346 3.64367 15.1492C3.83739 14.9524 4.15397 14.95 4.35076 15.1437L8.07143 18.8062L8.07143 10C8.07143 6.96243 10.5339 4.5 13.5714 4.5L20 4.5C20.2761 4.5 20.5 4.72386 20.5 5C20.5 5.27614 20.2761 5.5 20 5.5L13.5714 5.5Z" fill="black"/>
</svg>
