<svg width="24" height="24" viewBox="0 0 24 24" fill="none" xmlns="http://www.w3.org/2000/svg">
<path fill-rule="evenodd" clip-rule="evenodd" d="M4.99429 4.99427C5.08806 4.9005 5.21523 4.84782 5.34784 4.84782L10.0435 4.84783C10.3196 4.84783 10.5435 5.07168 10.5435 5.34783C10.5435 5.62397 10.3196 5.84783 10.0435 5.84783L6.55495 5.84782L12 11.2929L17.4451 5.84783L13.9566 5.84783C13.6804 5.84783 13.4566 5.62397 13.4566 5.34783C13.4566 5.07169 13.6804 4.84783 13.9566 4.84783L18.6522 4.84783C18.7848 4.84783 18.912 4.90051 19.0058 4.99428C19.0995 5.08805 19.1522 5.21522 19.1522 5.34783L19.1522 10.0435C19.1522 10.3196 18.9284 10.5435 18.6522 10.5435C18.3761 10.5435 18.1522 10.3196 18.1522 10.0435L18.1522 6.55494L12.7071 12L18.1522 17.4451V13.9565C18.1522 13.6804 18.376 13.4565 18.6522 13.4565C18.9283 13.4565 19.1522 13.6804 19.1522 13.9565V18.6522C19.1522 18.9283 18.9283 19.1522 18.6522 19.1522H13.9565C13.6804 19.1522 13.4565 18.9283 13.4565 18.6522C13.4565 18.376 13.6804 18.1522 13.9565 18.1522H17.4451L12 12.7071L6.55498 18.1522H10.0435C10.3197 18.1522 10.5435 18.376 10.5435 18.6522C10.5435 18.9283 10.3197 19.1522 10.0435 19.1522H5.34788C5.21527 19.1522 5.08809 19.0995 4.99432 19.0057C4.90055 18.912 4.84788 18.7848 4.84788 18.6522L4.84788 13.9565C4.84788 13.6804 5.07173 13.4565 5.34788 13.4565C5.62402 13.4565 5.84788 13.6804 5.84788 13.9565L5.84788 17.4451L11.2929 12L5.84784 6.55493L5.84784 10.0435C5.84784 10.3196 5.62398 10.5435 5.34784 10.5435C5.0717 10.5435 4.84784 10.3196 4.84784 10.0435L4.84784 5.34782C4.84784 5.21522 4.90052 5.08804 4.99429 4.99427Z" fill="black"/>
</svg>
