<svg width="24" height="24" viewBox="0 0 24 24" fill="none" xmlns="http://www.w3.org/2000/svg">
<path fill-rule="evenodd" clip-rule="evenodd" d="M11.7803 4.55084C11.6088 4.63474 11.5 4.80903 11.5 5V8L3 8C2.72386 8 2.5 8.22386 2.5 8.5V15.5C2.5 15.7761 2.72386 16 3 16L11.5 16V19C11.5 19.191 11.6088 19.3653 11.7803 19.4492C11.9519 19.5331 12.1562 19.5119 12.307 19.3947L21.307 12.3947C21.4288 12.2999 21.5 12.1543 21.5 12C21.5 11.8457 21.4288 11.7001 21.307 11.6053L12.307 4.60532C12.1562 4.48808 11.9519 4.46694 11.7803 4.55084ZM20.1856 12L12.5 17.9777V15.5C12.5 15.2239 12.2761 15 12 15L3.5 15V9L12 9C12.2761 9 12.5 8.77614 12.5 8.5V6.02232L20.1856 12Z" fill="black"/>
</svg>
