<svg width="24" height="24" viewBox="0 0 24 24" fill="none" xmlns="http://www.w3.org/2000/svg">
<path fill-rule="evenodd" clip-rule="evenodd" d="M19.3536 13.6464C19.5488 13.8417 19.5488 14.1583 19.3536 14.3536C19.1583 14.5488 18.8417 14.5488 18.6464 14.3536L12.5 8.20711L12.5 21C12.5 21.2761 12.2761 21.5 12 21.5C11.7239 21.5 11.5 21.2761 11.5 21L11.5 8.20711L5.35355 14.3536C5.15829 14.5488 4.84171 14.5488 4.64645 14.3536C4.45118 14.1583 4.45118 13.8417 4.64645 13.6464L11.6464 6.64645C11.8417 6.45118 12.1583 6.45118 12.3536 6.64645L19.3536 13.6464ZM19.5 4C19.5 4.27614 19.2761 4.5 19 4.5L5 4.5C4.72386 4.5 4.5 4.27614 4.5 4C4.5 3.72386 4.72386 3.5 5 3.5L19 3.5C19.2761 3.5 19.5 3.72386 19.5 4Z" fill="black"/>
</svg>
