<svg width="24" height="24" viewBox="0 0 24 24" fill="none" xmlns="http://www.w3.org/2000/svg">
<path fill-rule="evenodd" clip-rule="evenodd" d="M19.4492 12.2197C19.3653 12.3912 19.191 12.5 19 12.5L16 12.5L16 21C16 21.2761 15.7761 21.5 15.5 21.5L8.5 21.5C8.22385 21.5 8 21.2761 8 21L8 12.5L5 12.5C4.80903 12.5 4.63474 12.3912 4.55084 12.2197C4.46694 12.0481 4.48808 11.8438 4.60532 11.693L11.6053 2.69303C11.7 2.57124 11.8457 2.5 12 2.5C12.1543 2.5 12.2999 2.57124 12.3947 2.69303L19.3947 11.693C19.5119 11.8438 19.5331 12.0481 19.4492 12.2197ZM12 3.81441L6.02232 11.5L8.5 11.5C8.77614 11.5 9 11.7239 9 12L9 20.5L15 20.5L15 12C15 11.7239 15.2239 11.5 15.5 11.5L17.9777 11.5L12 3.81441Z" fill="black"/>
</svg>
