<svg width="24" height="24" viewBox="0 0 24 24" fill="none" xmlns="http://www.w3.org/2000/svg">
<path fill-rule="evenodd" clip-rule="evenodd" d="M16.1492 3.64367C16.346 3.44996 16.6626 3.45245 16.8563 3.64924L21.3563 8.22067C21.5479 8.41528 21.5479 8.72758 21.3563 8.92219L16.8563 13.4936C16.6626 13.6904 16.346 13.6929 16.1492 13.4992C15.9524 13.3055 15.95 12.9889 16.1437 12.7921L19.8062 9.07143H8.71428C5.83452 9.07143 3.5 11.4059 3.5 14.2857C3.5 17.1655 5.83451 19.5 8.71428 19.5H14.25C14.5261 19.5 14.75 19.7239 14.75 20C14.75 20.2761 14.5261 20.5 14.25 20.5H8.71428C5.28223 20.5 2.5 17.7178 2.5 14.2857C2.5 10.8537 5.28223 8.07143 8.71428 8.07143H19.8062L16.1437 4.35076C15.95 4.15397 15.9524 3.83739 16.1492 3.64367Z" fill="black"/>
</svg>
