<svg width="24" height="24" viewBox="0 0 24 24" fill="none" xmlns="http://www.w3.org/2000/svg">
<path fill-rule="evenodd" clip-rule="evenodd" d="M19 3.5C19.2761 3.5 19.5 3.72386 19.5 4V10.4286C19.5 13.4661 17.0376 15.9286 14 15.9286H5.19379L8.85633 19.6492C9.05005 19.846 9.04755 20.1626 8.85076 20.3563C8.65396 20.55 8.33739 20.5476 8.14367 20.3508L3.64367 15.7793C3.45211 15.5847 3.45211 15.2724 3.64367 15.0778L8.14367 10.5064C8.33739 10.3096 8.65396 10.3071 8.85076 10.5008C9.04755 10.6945 9.05005 11.0111 8.85633 11.2079L5.19379 14.9286H14C16.4853 14.9286 18.5 12.9139 18.5 10.4286V4C18.5 3.72386 18.7239 3.5 19 3.5Z" fill="black"/>
</svg>
