<svg width="24" height="24" viewBox="0 0 24 24" fill="none" xmlns="http://www.w3.org/2000/svg">
<path fill-rule="evenodd" clip-rule="evenodd" d="M5.5 6C5.5 5.72386 5.72386 5.5 6 5.5H16C16.2761 5.5 16.5 5.72386 16.5 6C16.5 6.27614 16.2761 6.5 16 6.5H6.5V16C6.5 16.2761 6.27614 16.5 6 16.5C5.72386 16.5 5.5 16.2761 5.5 16V6ZM9.5 10C9.5 9.72386 9.72386 9.5 10 9.5H20C20.2761 9.5 20.5 9.72386 20.5 10C20.5 10.2761 20.2761 10.5 20 10.5H10.5V20C10.5 20.2761 10.2761 20.5 10 20.5C9.72386 20.5 9.5 20.2761 9.5 20V10Z" fill="black"/>
</svg>
