<svg width="24" height="24" viewBox="0 0 24 24" fill="none" xmlns="http://www.w3.org/2000/svg">
<path fill-rule="evenodd" clip-rule="evenodd" d="M11.6464 19.3536C11.4512 19.1583 11.4512 18.8417 11.6464 18.6464L18.2929 12L11.6464 5.35355C11.4512 5.15829 11.4512 4.84171 11.6464 4.64645C11.8417 4.45118 12.1583 4.45118 12.3536 4.64645L19.3536 11.6464C19.5488 11.8417 19.5488 12.1583 19.3536 12.3536L12.3536 19.3536C12.1583 19.5488 11.8417 19.5488 11.6464 19.3536ZM5.64645 19.3536C5.45118 19.1583 5.45118 18.8417 5.64645 18.6464L12.2929 12L5.64645 5.35355C5.45119 5.15829 5.45119 4.84171 5.64645 4.64645C5.84171 4.45118 6.15829 4.45118 6.35356 4.64645L13.3536 11.6464C13.5488 11.8417 13.5488 12.1583 13.3536 12.3536L6.35355 19.3536C6.15829 19.5488 5.84171 19.5488 5.64645 19.3536Z" fill="black"/>
</svg>
