<svg width="24" height="24" viewBox="0 0 24 24" fill="none" xmlns="http://www.w3.org/2000/svg">
<path fill-rule="evenodd" clip-rule="evenodd" d="M12.3536 4.64645C12.5488 4.84171 12.5488 5.15829 12.3536 5.35355L5.70711 12L12.3536 18.6464C12.5488 18.8417 12.5488 19.1583 12.3536 19.3536C12.1583 19.5488 11.8417 19.5488 11.6464 19.3536L4.64645 12.3536C4.45118 12.1583 4.45118 11.8417 4.64645 11.6464L11.6464 4.64645C11.8417 4.45118 12.1583 4.45118 12.3536 4.64645ZM18.3536 4.64645C18.5488 4.84171 18.5488 5.15829 18.3536 5.35355L11.7071 12L18.3536 18.6464C18.5488 18.8417 18.5488 19.1583 18.3536 19.3536C18.1583 19.5488 17.8417 19.5488 17.6464 19.3536L10.6464 12.3536C10.4512 12.1583 10.4512 11.8417 10.6464 11.6464L17.6464 4.64645C17.8417 4.45118 18.1583 4.45118 18.3536 4.64645Z" fill="black"/>
</svg>
