<svg width="24" height="24" viewBox="0 0 24 24" fill="none" xmlns="http://www.w3.org/2000/svg">
<path fill-rule="evenodd" clip-rule="evenodd" d="M6 18.5C5.72386 18.5 5.5 18.2761 5.5 18L5.5 8C5.5 7.72386 5.72386 7.5 6 7.5C6.27614 7.5 6.5 7.72386 6.5 8L6.5 17.5L16 17.5C16.2761 17.5 16.5 17.7239 16.5 18C16.5 18.2761 16.2761 18.5 16 18.5L6 18.5ZM10 14.5C9.72386 14.5 9.5 14.2761 9.5 14L9.5 4C9.5 3.72386 9.72386 3.5 10 3.5C10.2761 3.5 10.5 3.72386 10.5 4L10.5 13.5L20 13.5C20.2761 13.5 20.5 13.7239 20.5 14C20.5 14.2761 20.2761 14.5 20 14.5L10 14.5Z" fill="black"/>
</svg>
