<svg width="24" height="24" viewBox="0 0 24 24" fill="none" xmlns="http://www.w3.org/2000/svg">
<path fill-rule="evenodd" clip-rule="evenodd" d="M19.5 4C19.5 4.27614 19.2761 4.5 19 4.5L5 4.5C4.72386 4.5 4.5 4.27614 4.5 4C4.5 3.72386 4.72386 3.5 5 3.5L19 3.5C19.2761 3.5 19.5 3.72386 19.5 4ZM19.3536 13.6464C19.5488 13.8417 19.5488 14.1583 19.3536 14.3536C19.1583 14.5488 18.8417 14.5488 18.6464 14.3536L12 7.70711L5.35355 14.3536C5.15829 14.5488 4.84171 14.5488 4.64645 14.3536C4.45118 14.1583 4.45118 13.8417 4.64645 13.6464L11.6464 6.64645C11.8417 6.45118 12.1583 6.45118 12.3536 6.64645L19.3536 13.6464ZM19.3536 19.6464C19.5488 19.8417 19.5488 20.1583 19.3536 20.3536C19.1583 20.5488 18.8417 20.5488 18.6464 20.3536L12 13.7071L5.35355 20.3536C5.15829 20.5488 4.84171 20.5488 4.64645 20.3536C4.45118 20.1583 4.45118 19.8417 4.64645 19.6464L11.6464 12.6464C11.8417 12.4512 12.1583 12.4512 12.3536 12.6464L19.3536 19.6464Z" fill="black"/>
</svg>
