<svg width="24" height="24" viewBox="0 0 24 24" fill="none" xmlns="http://www.w3.org/2000/svg">
<path fill-rule="evenodd" clip-rule="evenodd" d="M7.92498 3.64645C8.12024 3.84171 8.12024 4.15829 7.92498 4.35355L4.20711 8.07143H15.2857C18.7178 8.07143 21.5 10.8537 21.5 14.2857C21.5 17.7178 18.7178 20.5 15.2857 20.5H9.75C9.47386 20.5 9.25 20.2761 9.25 20C9.25 19.7239 9.47386 19.5 9.75 19.5H15.2857C18.1655 19.5 20.5 17.1655 20.5 14.2857C20.5 11.4059 18.1655 9.07143 15.2857 9.07143H4.20711L7.92498 12.7893C8.12024 12.9846 8.12024 13.3011 7.92498 13.4964C7.72972 13.6917 7.41314 13.6917 7.21788 13.4964L2.64645 8.92498C2.45118 8.72972 2.45118 8.41314 2.64645 8.21788L7.21788 3.64645C7.41314 3.45118 7.72972 3.45118 7.92498 3.64645Z" fill="black"/>
</svg>
