<svg width="24" height="24" viewBox="0 0 24 24" fill="none" xmlns="http://www.w3.org/2000/svg">
<path fill-rule="evenodd" clip-rule="evenodd" d="M18 5.5C18.2761 5.5 18.5 5.72386 18.5 6L18.5 16C18.5 16.2761 18.2761 16.5 18 16.5C17.7239 16.5 17.5 16.2761 17.5 16L17.5 6.5L8 6.5C7.72386 6.5 7.5 6.27614 7.5 6C7.5 5.72386 7.72386 5.5 8 5.5L18 5.5ZM14 9.5C14.2761 9.5 14.5 9.72386 14.5 10L14.5 20C14.5 20.2761 14.2761 20.5 14 20.5C13.7239 20.5 13.5 20.2761 13.5 20L13.5 10.5L4 10.5C3.72386 10.5 3.5 10.2761 3.5 10C3.5 9.72386 3.72386 9.5 4 9.5L14 9.5Z" fill="black"/>
</svg>
