<svg width="24" height="24" viewBox="0 0 24 24" fill="none" xmlns="http://www.w3.org/2000/svg">
<path fill-rule="evenodd" clip-rule="evenodd" d="M3.5 8.71428C3.5 5.28223 6.28223 2.5 9.71429 2.5C13.1463 2.5 15.9286 5.28223 15.9286 8.71429L15.9286 19.8062L19.6492 16.1437C19.846 15.95 20.1626 15.9524 20.3563 16.1492C20.55 16.346 20.5476 16.6626 20.3508 16.8563L15.7793 21.3563C15.5847 21.5479 15.2724 21.5479 15.0778 21.3563L10.5064 16.8563C10.3096 16.6626 10.3071 16.346 10.5008 16.1492C10.6945 15.9524 11.0111 15.95 11.2079 16.1437L14.9286 19.8062L14.9286 8.71429C14.9286 5.83452 12.5941 3.5 9.71429 3.5C6.83452 3.5 4.5 5.83451 4.5 8.71428L4.5 14.25C4.5 14.5261 4.27614 14.75 4 14.75C3.72386 14.75 3.5 14.5261 3.5 14.25L3.5 8.71428Z" fill="black"/>
</svg>
