<svg width="24" height="24" viewBox="0 0 24 24" fill="none" xmlns="http://www.w3.org/2000/svg">
<path fill-rule="evenodd" clip-rule="evenodd" d="M12 21C7.02944 21 3 16.9706 3 12C3 7.02944 7.02944 3 12 3C16.9706 3 21 7.02944 21 12C21 19.3125 17.1851 13.0981 14.9351 15.3481C12.6851 17.5981 19.3125 21 12 21ZM7.08447 13C7.63676 13 8.08447 12.5523 8.08447 12C8.08447 11.4477 7.63676 11 7.08447 11C6.53219 11 6.08447 11.4477 6.08447 12C6.08447 12.5523 6.53219 13 7.08447 13ZM9.5 18C10.3284 18 11 17.3284 11 16.5C11 15.6716 10.3284 15 9.5 15C8.67157 15 8 15.6716 8 16.5C8 17.3284 8.67157 18 9.5 18ZM13.7417 8.40565C14.294 8.40565 14.7417 7.95794 14.7417 7.40565C14.7417 6.85337 14.294 6.40565 13.7417 6.40565C13.1894 6.40565 12.7417 6.85337 12.7417 7.40565C12.7417 7.95794 13.1894 8.40565 13.7417 8.40565ZM9.17578 8.87634C9.72806 8.87634 10.1758 8.42863 10.1758 7.87634C10.1758 7.32406 9.72806 6.87634 9.17578 6.87634C8.62349 6.87634 8.17578 7.32406 8.17578 7.87634C8.17578 8.42863 8.62349 8.87634 9.17578 8.87634ZM16.5854 11.6944C17.1377 11.6944 17.5854 11.2467 17.5854 10.6944C17.5854 10.1421 17.1377 9.69441 16.5854 9.69441C16.0332 9.69441 15.5854 10.1421 15.5854 10.6944C15.5854 11.2467 16.0332 11.6944 16.5854 11.6944Z" stroke="black"/>
</svg>
