<svg width="24" height="24" viewBox="0 0 24 24" fill="none" xmlns="http://www.w3.org/2000/svg">
<path d="M11 20H5V4H19V13.931M11 20V16.6897H13V20M11 20H13M13 20H14.5M7.59259 6.75862H8.11111V7.31034H7.59259V6.75862ZM11.7407 6.75862H12.2593V7.31034H11.7407V6.75862ZM15.8889 6.75862H16.4074V7.31034H15.8889V6.75862ZM7.59259 10.069H8.11111V10.6207H7.59259V10.069ZM11.7407 10.069H12.2593V10.6207H11.7407V10.069ZM15.8889 10.069H16.4074V10.6207H15.8889V10.069ZM7.59259 13.3793H8.11111V13.931H7.59259V13.3793ZM11.7407 13.3793H12.2593V13.931H11.7407V13.3793ZM15.8889 13.3793H16.4074V13.931H15.8889V13.3793ZM7.59259 16.6897H8.11111V17.2414H7.59259V16.6897ZM19.3043 18.3183C19.3043 18.5894 19.0887 18.8091 18.8228 18.8091C18.5569 18.8091 18.3413 18.5894 18.3413 18.3183C18.3413 18.0473 18.5569 17.8276 18.8228 17.8276C19.0887 17.8276 19.3043 18.0473 19.3043 18.3183ZM17.2282 16.1245C17.5977 16.2398 17.9921 16.0463 18.134 15.68C18.3806 15.0432 19.265 15.0432 19.5116 15.68C19.6535 16.0463 20.0479 16.2398 20.4173 16.1245C21.0597 15.924 21.611 16.6286 21.2763 17.2222C21.0838 17.5636 21.1812 17.9985 21.5 18.221C22.0543 18.6078 21.8575 19.4864 21.1934 19.5898C20.8115 19.6493 20.5386 19.9981 20.5667 20.3908C20.6155 21.0736 19.8188 21.4647 19.3254 21C19.0416 20.7327 18.6039 20.7327 18.3202 21C17.8268 21.4647 17.0301 21.0736 17.0789 20.3908C17.107 19.9981 16.8341 19.6493 16.4522 19.5898C15.7881 19.4864 15.5913 18.6078 16.1456 18.221C16.4644 17.9985 16.5618 17.5636 16.3693 17.2222C16.0346 16.6286 16.5859 15.924 17.2282 16.1245Z" stroke="black" stroke-linecap="round" stroke-linejoin="round"/>
</svg>
