<svg width="24" height="24" viewBox="0 0 24 24" fill="none" xmlns="http://www.w3.org/2000/svg">
<path d="M11 20H5V4H19V20H13M11 20V16.6897H13V20M11 20H13M7.59259 6.75862H8.11111V7.31034H7.59259V6.75862ZM11.7407 6.75862H12.2593V7.31034H11.7407V6.75862ZM15.8889 6.75862H16.4074V7.31034H15.8889V6.75862ZM7.59259 10.069H8.11111V10.6207H7.59259V10.069ZM11.7407 10.069H12.2593V10.6207H11.7407V10.069ZM15.8889 10.069H16.4074V10.6207H15.8889V10.069ZM7.59259 13.3793H8.11111V13.931H7.59259V13.3793ZM11.7407 13.3793H12.2593V13.931H11.7407V13.3793ZM15.8889 13.3793H16.4074V13.931H15.8889V13.3793ZM7.59259 16.6897H8.11111V17.2414H7.59259V16.6897ZM15.8889 16.6897H16.4074V17.2414H15.8889V16.6897Z" stroke="black" stroke-linejoin="round"/>
</svg>
