<svg width="24" height="24" viewBox="0 0 24 24" fill="none" xmlns="http://www.w3.org/2000/svg">
<path d="M15.2008 12.1588C14.3336 11.4353 13.2175 11 11.9998 11C10.7821 11 9.66607 11.4353 8.79883 12.1588M13.9204 13.6953C13.4001 13.2612 12.7305 13 11.9998 13C11.2692 13 10.5996 13.2612 10.0792 13.6953M4 12L12 4L20 12H18V20H6V12H4ZM12.9998 16C12.9998 16.5523 12.5521 17 11.9998 17C11.4475 17 10.9998 16.5523 10.9998 16C10.9998 15.4477 11.4475 15 11.9998 15C12.5521 15 12.9998 15.4477 12.9998 16Z" stroke="black" stroke-linecap="round" stroke-linejoin="round"/>
</svg>
