<svg width="24" height="24" viewBox="0 0 24 24" fill="none" xmlns="http://www.w3.org/2000/svg">
<path d="M11 20H5V4H19V13M11 20V16.6897H13V20M11 20H13M13 20H15M7.59259 6.75862H8.11111V7.31034H7.59259V6.75862ZM11.7407 6.75862H12.2593V7.31034H11.7407V6.75862ZM15.8889 6.75862H16.4074V7.31034H15.8889V6.75862ZM7.59259 10.069H8.11111V10.6207H7.59259V10.069ZM11.7407 10.069H12.2593V10.6207H11.7407V10.069ZM15.8889 10.069H16.4074V10.6207H15.8889V10.069ZM7.59259 13.3793H8.11111V13.931H7.59259V13.3793ZM11.7407 13.3793H12.2593V13.931H11.7407V13.3793ZM15.8889 13.3793H16.4074V13.931H15.8889V13.3793ZM7.59259 16.6897H8.11111V17.2414H7.59259V16.6897ZM21.5 17.1897C21.5 15.8089 20.3807 14.6897 19 14.6897C17.6193 14.6897 16.5 15.8089 16.5 17.1897C16.5 18.5704 19 21.6897 19 21.6897C19 21.6897 21.5 18.5704 21.5 17.1897ZM19 17.6897C18.7239 17.6897 18.5 17.4658 18.5 17.1897C18.5 16.9135 18.7239 16.6897 19 16.6897C19.2761 16.6897 19.5 16.9135 19.5 17.1897C19.5 17.4658 19.2761 17.6897 19 17.6897Z" stroke="black" stroke-linecap="round" stroke-linejoin="round"/>
</svg>
