<svg width="24" height="24" viewBox="0 0 24 24" fill="none" xmlns="http://www.w3.org/2000/svg">
<path d="M11.9999 8.4H8.99991V13M11.9999 8.4H14.9999V13M11.9999 8.4V5M8.99991 20H10.7691V16.8308C10.7691 16.151 11.3202 15.6 11.9999 15.6C12.6796 15.6 13.2307 16.151 13.2307 16.8308V20H14.9999M8.99991 20V13M8.99991 20H1.99976V11.5H3.49976V13H5.49976V11.5H6.99976V13H8.99991M14.9999 20V13M14.9999 20H21.9998V11.5H20.4998V13H18.4998V11.5H16.9998V13H14.9999M11.9999 5V3L15.9999 4.5L11.9999 5Z" stroke="black" stroke-linejoin="round"/>
</svg>
