<svg width="24" height="24" viewBox="0 0 24 24" fill="none" xmlns="http://www.w3.org/2000/svg">
<path d="M18 13V12H20L12 4L4 12H6V20H13M18.3043 18.1384C18.3043 18.4094 18.0887 18.6291 17.8228 18.6291C17.5569 18.6291 17.3413 18.4094 17.3413 18.1384C17.3413 17.8673 17.5569 17.6476 17.8228 17.6476C18.0887 17.6476 18.3043 17.8673 18.3043 18.1384ZM16.2282 15.9445C16.5977 16.0598 16.9921 15.8663 17.134 15.5C17.3806 14.8632 18.265 14.8632 18.5116 15.5C18.6535 15.8663 19.0479 16.0598 19.4173 15.9445C20.0597 15.744 20.611 16.4486 20.2763 17.0422C20.0838 17.3837 20.1812 17.8185 20.5 18.041C21.0543 18.4278 20.8575 19.3065 20.1934 19.4099C19.8115 19.4693 19.5386 19.8181 19.5667 20.2108C19.6155 20.8936 18.8188 21.2847 18.3254 20.82C18.0416 20.5528 17.6039 20.5528 17.3202 20.82C16.8268 21.2847 16.0301 20.8936 16.0789 20.2108C16.107 19.8181 15.8341 19.4693 15.4522 19.4099C14.7881 19.3065 14.5913 18.4278 15.1456 18.041C15.4644 17.8185 15.5618 17.3837 15.3693 17.0422C15.0346 16.4486 15.5859 15.744 16.2282 15.9445Z" stroke="black" stroke-linecap="round" stroke-linejoin="round"/>
</svg>
