<svg width="24" height="24" viewBox="0 0 24 24" fill="none" xmlns="http://www.w3.org/2000/svg">
<path fill-rule="evenodd" clip-rule="evenodd" d="M7 4.5C7.27614 4.5 7.5 4.72386 7.5 5V19C7.5 19.2761 7.27614 19.5 7 19.5C6.72386 19.5 6.5 19.2761 6.5 19V5C6.5 4.72386 6.72386 4.5 7 4.5ZM16.6464 4.64645C16.8417 4.45118 17.1583 4.45118 17.3536 4.64645C17.5488 4.84171 17.5488 5.15829 17.3536 5.35355L10.7071 12L17.3536 18.6464C17.5488 18.8417 17.5488 19.1583 17.3536 19.3536C17.1583 19.5488 16.8417 19.5488 16.6464 19.3536L9.64645 12.3536C9.45118 12.1583 9.45118 11.8417 9.64645 11.6464L16.6464 4.64645Z" fill="black"/>
</svg>
