<svg width="24" height="24" viewBox="0 0 24 24" fill="none" xmlns="http://www.w3.org/2000/svg">
<path fill-rule="evenodd" clip-rule="evenodd" d="M19.5 7C19.5 7.27614 19.2761 7.5 19 7.5L5 7.5C4.72386 7.5 4.5 7.27614 4.5 7C4.5 6.72386 4.72386 6.5 5 6.5L19 6.5C19.2761 6.5 19.5 6.72386 19.5 7ZM19.3536 16.6464C19.5488 16.8417 19.5488 17.1583 19.3536 17.3536C19.1583 17.5488 18.8417 17.5488 18.6464 17.3536L12 10.7071L5.35355 17.3536C5.15829 17.5488 4.84171 17.5488 4.64645 17.3536C4.45118 17.1583 4.45118 16.8417 4.64645 16.6464L11.6464 9.64645C11.8417 9.45118 12.1583 9.45118 12.3536 9.64645L19.3536 16.6464Z" fill="black"/>
</svg>
