<svg width="24" height="24" viewBox="0 0 24 24" fill="none" xmlns="http://www.w3.org/2000/svg">
<path fill-rule="evenodd" clip-rule="evenodd" d="M17 19.5C16.7239 19.5 16.5 19.2761 16.5 19L16.5 5C16.5 4.72386 16.7239 4.5 17 4.5C17.2761 4.5 17.5 4.72386 17.5 5L17.5 19C17.5 19.2761 17.2761 19.5 17 19.5ZM7.35355 19.3536C7.15829 19.5488 6.84171 19.5488 6.64645 19.3536C6.45118 19.1583 6.45118 18.8417 6.64645 18.6464L13.2929 12L6.64645 5.35355C6.45119 5.15829 6.45119 4.84171 6.64645 4.64645C6.84171 4.45118 7.15829 4.45118 7.35356 4.64645L14.3536 11.6464C14.5488 11.8417 14.5488 12.1583 14.3536 12.3536L7.35355 19.3536Z" fill="black"/>
</svg>
