<svg width="24" height="24" viewBox="0 0 24 24" fill="none" xmlns="http://www.w3.org/2000/svg">
<path fill-rule="evenodd" clip-rule="evenodd" d="M4.5 17C4.5 16.7239 4.72386 16.5 5 16.5L19 16.5C19.2761 16.5 19.5 16.7239 19.5 17C19.5 17.2761 19.2761 17.5 19 17.5L5 17.5C4.72386 17.5 4.5 17.2761 4.5 17ZM4.64645 7.35355C4.45118 7.15829 4.45118 6.84171 4.64645 6.64645C4.84171 6.45118 5.15829 6.45118 5.35355 6.64645L12 13.2929L18.6464 6.64645C18.8417 6.45118 19.1583 6.45118 19.3536 6.64645C19.5488 6.84171 19.5488 7.15829 19.3536 7.35355L12.3536 14.3536C12.1583 14.5488 11.8417 14.5488 11.6464 14.3536L4.64645 7.35355Z" fill="black"/>
</svg>
