<svg width="24" height="24" viewBox="0 0 24 24" fill="none" xmlns="http://www.w3.org/2000/svg">
<path d="M21 13.1429C21 15.8736 19.8216 18.3247 17.9531 20H6.0469C4.17845 18.3247 3 15.8736 3 13.1429M21 13.1429H18.75M21 13.1429C21 10.4121 19.8216 7.96102 17.9531 6.28571M3 13.1429H5.25M3 13.1429C3 10.4121 4.17845 7.96102 6.0469 6.28571M12 4V6.28571M12 4C9.7175 4 7.63344 4.86317 6.0469 6.28571M12 4C14.2825 4 16.3666 4.86317 17.9531 6.28571M6.0469 6.28571L7.5 8M17.9531 6.28571L16.5 8M13.125 16.5714C13.125 17.2026 12.6213 17.7143 12 17.7143C11.3787 17.7143 10.875 17.2026 10.875 16.5714C10.875 15.9402 12 8.57143 12 8.57143C12 8.57143 13.125 15.9402 13.125 16.5714Z" stroke="black" stroke-linecap="round" stroke-linejoin="round"/>
</svg>
