<svg width="24" height="24" viewBox="0 0 24 24" fill="none" xmlns="http://www.w3.org/2000/svg">
<path d="M8.75 20C10.8211 20 12.5 18.3719 12.5 16.3636C12.5 14.3553 10.8211 12.7273 8.75 12.7273C6.67893 12.7273 5 14.3553 5 16.3636C5 18.3719 6.67893 20 8.75 20Z" stroke="black" stroke-linejoin="round"/>
<path d="M8.75 8.36364C9.99264 8.36364 11 7.3868 11 6.18182C11 4.97683 9.99264 4 8.75 4C7.50736 4 6.5 4.97683 6.5 6.18182C6.5 7.3868 7.50736 8.36364 8.75 8.36364Z" stroke="black" stroke-linejoin="round"/>
<path d="M17.75 12.7273C18.9926 12.7273 20 11.7504 20 10.5455C20 9.34047 18.9926 8.36364 17.75 8.36364C16.5074 8.36364 15.5 9.34047 15.5 10.5455C15.5 11.7504 16.5074 12.7273 17.75 12.7273Z" stroke="black" stroke-linejoin="round"/>
</svg>
