<svg width="24" height="24" viewBox="0 0 24 24" fill="none" xmlns="http://www.w3.org/2000/svg">
<path d="M4.5 4V19.5H20M13 14.5C13 15.8807 11.8807 17 10.5 17C9.11929 17 8 15.8807 8 14.5C8 13.1193 9.11929 12 10.5 12C11.8807 12 13 13.1193 13 14.5ZM12 7.5C12 8.32843 11.3284 9 10.5 9C9.67157 9 9 8.32843 9 7.5C9 6.67157 9.67157 6 10.5 6C11.3284 6 12 6.67157 12 7.5ZM18 10.5C18 11.3284 17.3284 12 16.5 12C15.6716 12 15 11.3284 15 10.5C15 9.67157 15.6716 9 16.5 9C17.3284 9 18 9.67157 18 10.5Z" stroke="black" stroke-linecap="round" stroke-linejoin="round"/>
</svg>
