<svg width="24" height="24" viewBox="0 0 24 24" fill="none" xmlns="http://www.w3.org/2000/svg">
<path d="M21 13.1429C21 15.8736 19.8216 18.3247 17.9531 20H6.0469C4.17845 18.3247 3 15.8736 3 13.1429M21 13.1429H18.75M21 13.1429C21 10.4121 19.8216 7.96102 17.9531 6.28571M3 13.1429H5.25M3 13.1429C3 10.4121 4.17845 7.96102 6.0469 6.28571M12 4V6.28571M12 4C9.7175 4 7.63344 4.86317 6.0469 6.28571M12 4C14.2825 4 16.3666 4.86317 17.9531 6.28571M6.0469 6.28571L7.5 8M17.9531 6.28571L16.5 8M12.852 17.3221C12.4127 17.7684 11.7004 17.7684 11.261 17.3221C10.8217 16.8758 10.8217 16.1522 11.261 15.7059C11.7004 15.2596 17.625 10.8571 17.625 10.8571C17.625 10.8571 13.2914 16.8758 12.852 17.3221Z" stroke="black" stroke-linecap="round" stroke-linejoin="round"/>
</svg>
