<svg width="24" height="24" viewBox="0 0 24 24" fill="none" xmlns="http://www.w3.org/2000/svg">
<path d="M9 14.6458C9.73294 15.4762 10.8053 16 12 16C13.1947 16 14.2671 15.4762 15 14.6458L17.8095 17.5C16.3514 19.0396 14.2879 20 12 20C9.71214 20 7.64859 19.0396 6.1905 17.5M9 14.6458C8.37764 13.9407 8 13.0144 8 12C8 10.9856 8.37764 10.0593 9 9.35418M9 14.6458L6.1905 17.5M6.1905 17.5C4.83275 16.0663 4 14.1304 4 12C4 9.86958 4.83275 7.93366 6.1905 6.5M9 9.35418C9.73294 8.52375 10.8053 8 12 8V4C9.71214 4 7.64859 4.96038 6.1905 6.5M9 9.35418L6.1905 6.5M14 3C18.4183 3 22 6.58172 22 11C22 13.1304 21.1672 15.0663 19.8095 16.5L17 13.6458C17.6224 12.9407 18 12.0144 18 11C18 8.79086 16.2091 7 14 7V3Z" stroke="black" stroke-linejoin="round"/>
</svg>
