<svg width="24" height="24" viewBox="0 0 24 24" fill="none" xmlns="http://www.w3.org/2000/svg">
<path d="M8.6822 15C9.63251 15.6318 10.7733 16 12 16C13.2267 16 14.3675 15.6318 15.3178 15M8.6822 15C7.06551 13.9251 6 12.087 6 10C6 6.68629 8.68629 4 12 4C15.3137 4 18 6.68629 18 10C18 12.087 16.9345 13.9251 15.3178 15M8.6822 15L6.70143 19.0617C6.37748 19.7259 6.86119 20.5 7.60025 20.5H16.3998C17.1388 20.5 17.6225 19.7259 17.2986 19.0617L15.3178 15M12 12.5C10.6193 12.5 9.5 11.3807 9.5 10C9.5 8.61929 10.6193 7.5 12 7.5C13.3807 7.5 14.5 8.61929 14.5 10C14.5 11.3807 13.3807 12.5 12 12.5Z" stroke="black" stroke-linejoin="round"/>
</svg>
