<svg width="24" height="24" viewBox="0 0 24 24" fill="none" xmlns="http://www.w3.org/2000/svg">
<path fill-rule="evenodd" clip-rule="evenodd" d="M3 6V18H21V6H3ZM18.4286 8.5H17.9143V9H18.4286V8.5ZM15.3429 15.5H8.65714V15H15.3429V15.5ZM15.3429 8.5H14.8286V9H15.3429V8.5ZM12.2571 8.5H11.7429V9H12.2571V8.5ZM9.17143 8.5H8.65714V9H9.17143V8.5ZM6.08571 8.5H5.57143V9H6.08571V8.5ZM18.4286 11.5H17.9143V12H18.4286V11.5ZM15.3429 11.5H14.8286V12H15.3429V11.5ZM12.2571 11.5H11.7429V12H12.2571V11.5ZM9.17143 11.5H8.65714V12H9.17143V11.5ZM6.08571 11.5H5.57143V12H6.08571V11.5Z" stroke="black" stroke-linejoin="round"/>
</svg>
