<svg width="24" height="24" viewBox="0 0 24 24" fill="none" xmlns="http://www.w3.org/2000/svg">
<path d="M12 11H4V20.5H20V11H12ZM12 11C12 8.5 10 8.1 10 6.5C10 4.5 14 6.5 14 3M6 16H8.5M11 16H8.5M8.5 13.5V16M8.5 18.5V16M17 15C16.4477 15 16 14.5523 16 14C16 13.4477 16.4477 13 17 13C17.5523 13 18 13.4477 18 14C18 14.5523 17.5523 15 17 15ZM14.5 18.5C13.9477 18.5 13.5 18.0523 13.5 17.5C13.5 16.9477 13.9477 16.5 14.5 16.5C15.0523 16.5 15.5 16.9477 15.5 17.5C15.5 18.0523 15.0523 18.5 14.5 18.5Z" stroke="black" stroke-linecap="round" stroke-linejoin="round"/>
</svg>
