<svg width="24" height="24" viewBox="0 0 24 24" fill="none" xmlns="http://www.w3.org/2000/svg">
<path d="M9 5C11.7614 5 14 7.23858 14 10V10.8333M9 5C6.23858 5 4 7.23858 4 10V10.8333M9 5V10.8333M4 10.8333V14C4 16.7614 6.23858 19 9 19C11.7614 19 14 16.7614 14 14V10.8333M4 10.8333H9M14 10.8333H9M17.9469 8.72791C18.6069 9.5752 19 10.6406 19 11.7977C19 12.9549 18.6069 14.0203 17.9469 14.8676M19.5257 7.5C20.4497 8.68621 21 10.1777 21 11.7978C21 13.4178 20.4497 14.9093 19.5257 16.0956M16.3682 9.95581C16.7641 10.4642 17 11.1034 17 11.7977C17 12.492 16.7641 13.1312 16.3682 13.6396" stroke="black" stroke-linecap="round" stroke-linejoin="round"/>
</svg>
