<svg width="24" height="24" viewBox="0 0 24 24" fill="none" xmlns="http://www.w3.org/2000/svg">
<path d="M4 14.2857V17.7143C4 18.9767 5.02335 20 6.28571 20C7.54808 20 8.57143 18.9767 8.57143 17.7143V14.2857C8.57143 13.0234 7.54808 12 6.28571 12C5.02335 12 4 13.0234 4 14.2857ZM4 14.2857V12C4 7.58172 7.58172 4 12 4C16.4183 4 20 7.58172 20 12V14.2857M20 14.2857V17.7143C20 18.9767 18.9767 20 17.7143 20C16.4519 20 15.4286 18.9767 15.4286 17.7143V14.2857C15.4286 13.0234 16.4519 12 17.7143 12C18.9767 12 20 13.0234 20 14.2857Z" stroke="black" stroke-linejoin="round"/>
</svg>
