<svg width="24" height="24" viewBox="0 0 24 24" fill="none" xmlns="http://www.w3.org/2000/svg">
<path d="M3.26471 17.6H1.5L1.5 11H3.26471M3.26471 17.6C3.26471 17.6 4.14706 17.9143 5.02941 19.1714C5.91176 20.4286 5.91176 22 5.91176 22H6.20588C6.85563 22 7.38235 21.4372 7.38235 20.7429L7.38235 17.6L10.9118 17.6C11.2366 17.6 11.5 17.3186 11.5 16.9714V15.7143L10.44 11.4666C10.3713 11.1915 10.1381 11 9.8716 11L3.26471 11M3.26471 17.6L3.26471 11M20.7353 6.4H22.5V13H20.7353M20.7353 6.4C20.7353 6.4 19.8529 6.08571 18.9706 4.82857C18.0882 3.57143 18.0882 2 18.0882 2H17.7941C17.1444 2 16.6176 2.56284 16.6176 3.25714V6.4H13.0882C12.7634 6.4 12.5 6.68142 12.5 7.02857V8.28571L13.56 12.5334C13.6287 12.8085 13.8619 13 14.1284 13H20.7353M20.7353 6.4V13" stroke="black" stroke-linejoin="round"/>
</svg>
