<svg width="24" height="24" viewBox="0 0 24 24" fill="none" xmlns="http://www.w3.org/2000/svg">
<path d="M12 9H4V13.5M12 9H20V13.5M12 9V6M12 6C13.1046 6 14 5.10457 14 4C14 2.89543 13.1046 2 12 2C10.8954 2 10 2.89543 10 4C10 5.10457 10.8954 6 12 6ZM4 13.5V21H20V13.5M4 13.5H2M20 13.5H22M10 15C10 15.8284 9.32843 16.5 8.5 16.5C7.67157 16.5 7 15.8284 7 15C7 14.1716 7.67157 13.5 8.5 13.5C9.32843 13.5 10 14.1716 10 15ZM17 15C17 15.8284 16.3284 16.5 15.5 16.5C14.6716 16.5 14 15.8284 14 15C14 14.1716 14.6716 13.5 15.5 13.5C16.3284 13.5 17 14.1716 17 15Z" stroke="black" stroke-linecap="round" stroke-linejoin="round"/>
</svg>
