<svg width="24" height="24" viewBox="0 0 24 24" fill="none" xmlns="http://www.w3.org/2000/svg">
<path d="M12 9H4V13.5M12 9H20V13.5M12 9V6M12 6C13.1046 6 14 5.10457 14 4C14 2.89543 13.1046 2 12 2C10.8954 2 10 2.89543 10 4C10 5.10457 10.8954 6 12 6ZM4 13.5V21H20V13.5M4 13.5H2M20 13.5H22M7.08581 14.7072C6.79292 14.4143 6.79291 13.9394 7.08581 13.6465C7.3787 13.3536 7.85358 13.3536 8.14647 13.6465L8.49998 14L8.85349 13.6465C9.14639 13.3536 9.62126 13.3536 9.91416 13.6465C10.207 13.9394 10.207 14.4143 9.91416 14.7071L8.49998 16.1213L7.08581 14.7072ZM14.0858 14.7071C13.7929 14.4143 13.7929 13.9394 14.0858 13.6465C14.3787 13.3536 14.8536 13.3536 15.1465 13.6465L15.5 14L15.8535 13.6465C16.1464 13.3536 16.6213 13.3536 16.9142 13.6465C17.2071 13.9394 17.2071 14.4143 16.9142 14.7071L15.5 16.1213L14.0858 14.7071Z" stroke="black" stroke-linecap="round" stroke-linejoin="round"/>
</svg>
