<svg width="24" height="24" viewBox="0 0 24 24" fill="none" xmlns="http://www.w3.org/2000/svg">
<path d="M14 3H5V21H19V8M14 3V8H19M14 3L19 8M12 11C12.0223 11 12.0446 11.0002 12.0668 11.0007C12.3573 11.0071 12.6456 10.8819 12.7908 10.6302C12.9804 10.302 13.4001 10.1895 13.7283 10.379L14.2718 10.6928C14.6 10.8823 14.7124 11.3019 14.523 11.6301C14.3775 11.882 14.4137 12.1945 14.5649 12.443C14.5878 12.4808 14.61 12.5191 14.6313 12.5579C14.7712 12.8126 15.0236 13 15.3142 13C15.693 13 16 13.307 16 13.6858V14.3142C16 14.693 15.693 15 15.3142 15C15.0236 15 14.7712 15.1874 14.6313 15.4421C14.61 15.4809 14.5878 15.5192 14.5649 15.557C14.4137 15.8055 14.3775 16.118 14.523 16.3699C14.7124 16.6981 14.6 17.1177 14.2718 17.3072L13.7283 17.621C13.4001 17.8105 12.9803 17.698 12.7908 17.3698C12.6455 17.1181 12.3573 16.9929 12.0668 16.9993C12.0446 16.9998 12.0223 17 12 17C11.9777 17 11.9554 16.9998 11.9332 16.9993C11.6427 16.9929 11.3545 17.1181 11.2092 17.3698C11.0197 17.698 10.5999 17.8105 10.2717 17.621L9.72817 17.3071C9.40002 17.1177 9.28758 16.6981 9.47704 16.3699C9.62248 16.118 9.58633 15.8055 9.43516 15.557C9.41219 15.5192 9.39003 15.4809 9.36871 15.4421C9.2288 15.1874 8.97639 15 8.68576 15C8.30702 15 8 14.693 8 14.3142V13.6857C8 13.307 8.30702 13 8.68576 13C8.97639 13 9.2288 12.8126 9.36871 12.5579C9.39003 12.5191 9.41218 12.4808 9.43514 12.443C9.58632 12.1945 9.62247 11.882 9.47703 11.6301C9.28757 11.3019 9.4 10.8823 9.72816 10.6928L10.2717 10.379C10.5999 10.1895 11.0197 10.302 11.2092 10.6302C11.3544 10.8819 11.6427 11.0071 11.9332 11.0007C11.9554 11.0002 11.9777 11 12 11ZM13 14C13 14.5523 12.5523 15 12 15C11.4477 15 11 14.5523 11 14C11 13.4477 11.4477 13 12 13C12.5523 13 13 13.4477 13 14Z" stroke="black" stroke-linecap="square" stroke-linejoin="round"/>
</svg>
