<svg width="24" height="24" viewBox="0 0 24 24" fill="none" xmlns="http://www.w3.org/2000/svg">
<path d="M7.625 13.7778L8.5 20H10.9375M7.625 13.7778C6.17525 13.7778 5 12.5839 5 11.1111C5 9.63835 6.17525 8.44444 7.625 8.44444H8.0625C8.0625 7.39057 8.95859 6.47948 10.2699 6.04647M7.625 13.7778H10.0434M16.375 13.7778L15.5 20H13.0625M16.375 13.7778C17.8247 13.7778 19 12.5839 19 11.1111C19 9.63835 17.8247 8.44444 16.375 8.44444H15.9375C15.9375 7.39057 15.0414 6.47948 13.7301 6.04647M16.375 13.7778H13.9566M10.9375 20L10.5 16M10.9375 20H13.0625M13.0625 20L13.5 16M9.54063 12.9343C9.65604 13.2477 9.82781 13.5331 10.0434 13.7778M14.4594 12.9343C14.344 13.2477 14.1722 13.5331 13.9566 13.7778M10.0434 13.7778C10.5241 14.3233 11.2226 14.6667 12 14.6667C12.7774 14.6667 13.4759 14.3233 13.9566 13.7778M10.2699 6.04647C10.3974 6.90082 11.1234 7.55556 12 7.55556C12.8766 7.55556 13.6026 6.90082 13.7301 6.04647M10.2699 6.04647C10.2568 5.95884 10.25 5.86911 10.25 5.77778C10.25 4.79594 11.0335 4 12 4C12.9665 4 13.75 4.79594 13.75 5.77778C13.75 5.86911 13.7432 5.95884 13.7301 6.04647" stroke="black" stroke-linecap="round" stroke-linejoin="round"/>
</svg>
