<svg width="24" height="24" viewBox="0 0 24 24" fill="none" xmlns="http://www.w3.org/2000/svg">
<path d="M20 12C21 11.6667 22.7 10.4 21.5 8C20.3 5.6 21.3333 5 22 5C22.6667 5 23.0607 5.93934 22 7C21 8 19 6 19 3M20 12C20 10.2865 19.2084 8.71677 17.8941 7.5M20 12C20 13.7135 19.2084 15.2832 17.8941 16.5M20 12L14.5 11.5L11 12.5L5 11L2 12M2 12C2 10.2865 2.79159 8.71677 4.10585 7.5M2 12C2 13.7135 2.79159 15.2832 4.10585 16.5M4.10585 7.5C5.7568 5.97153 8.23253 5 11 5C13.7675 5 16.2432 5.97153 17.8941 7.5M4.10585 7.5L7 9L11 7.5L14.5 9L17.8941 7.5M4.10585 16.5C5.7568 18.0285 8.23253 19 11 19C13.7675 19 16.2432 18.0285 17.8941 16.5M4.10585 16.5L7 15L11 17L14.5 15L17.8941 16.5" stroke="black" stroke-linecap="round" stroke-linejoin="round"/>
</svg>
