<svg width="24" height="24" viewBox="0 0 24 24" fill="none" xmlns="http://www.w3.org/2000/svg">
<path d="M7.5269 9.22223L6.16667 4.22222L9.66667 5.88889L12 2L14.3333 5.88889L17.8333 4.22222L16.4731 9.22223M7.5269 9.22223C6.78327 9.86029 6.16979 10.6543 5.73359 11.5555M7.5269 9.22223C7.81408 8.97581 8.12068 8.75265 8.44398 8.55554M16.4731 9.22223C16.1694 8.96162 15.8439 8.72702 15.5 8.52175M16.4731 9.22223C17.2014 9.84715 17.8049 10.6216 18.2392 11.5M15.5 8.52175C14.4704 7.90724 13.275 7.55554 12 7.55554C10.7018 7.55554 9.48614 7.92015 8.44398 8.55554M15.5 8.52175L5.73359 18M5.73359 18C5.26412 17.03 5 15.9357 5 14.7778C5 13.6198 5.26412 12.5255 5.73359 11.5555M5.73359 18C6.33825 19.2493 7.28357 20.2925 8.44398 21M8.44398 21C9.48614 21.6354 10.7018 22 12 22C13.2982 22 14.5139 21.6354 15.556 21M8.44398 21L18.2392 11.5M18.2392 11.5C18.7257 12.4837 19 13.5977 19 14.7778C19 15.9357 18.7359 17.03 18.2664 18M18.2664 18C17.6617 19.2493 16.7164 20.2925 15.556 21M18.2664 18L8.44398 8.55554M15.556 21L5.73359 11.5555" stroke="black" stroke-linejoin="round"/>
</svg>
