<svg width="24" height="24" viewBox="0 0 24 24" fill="none" xmlns="http://www.w3.org/2000/svg">
<path d="M11 7.25L11 3.75C11 3.33579 11.3358 3 11.75 3C12.1642 3 12.5 3.33579 12.5 3.75L12.5 8.85714C12.5 10.0406 11.5406 11 10.3571 11C10.1599 11 10 11.1599 10 11.3571L10 19.75C10 20.4404 9.44035 21 8.75 21C8.05964 21 7.5 20.4404 7.5 19.75L7.5 11.3571C7.5 11.1599 7.3401 11 7.14286 11C5.95939 11 5 10.0406 5 8.85714V3.75C5 3.33579 5.33579 3 5.75 3C6.16422 3 6.5 3.33579 6.5 3.75L6.5 7.25C6.5 7.66421 6.83579 8 7.25 8C7.66422 8 8 7.66421 8 7.25L8 3.75C8 3.33579 8.33579 3 8.75 3C9.16422 3 9.5 3.33579 9.5 3.75L9.5 7.25C9.5 7.66421 9.83579 8 10.25 8C10.6642 8 11 7.66421 11 7.25Z" stroke="black" stroke-linejoin="round"/>
<path d="M18 11.7997V4.25C18 3.55965 17.4404 3 16.75 3C16.0596 3 15.5 3.55964 15.5 4.25V21C15.5 21 19 21 19 17.5V15.1008C19 14.0559 18.6907 13.0361 18.1111 12.1667C18.0387 12.058 18 11.9303 18 11.7997Z" stroke="black" stroke-linejoin="round"/>
</svg>
