<svg width="24" height="24" viewBox="0 0 24 24" fill="none" xmlns="http://www.w3.org/2000/svg">
<path d="M7 7V14C7 14.5523 7.44772 15 8 15H10.5M7 7V4C7 3.44772 7.44772 3 8 3H16C16.5523 3 17 3.44772 17 4V7M7 7H11C11.5523 7 12 7.44772 12 8V9.5C12 10.0523 12.4477 10.5 13 10.5C13.5523 10.5 14 10.0523 14 9.5V8C14 7.44772 14.4477 7 15 7H17M17 7V14C17 14.5523 16.5523 15 16 15H13.5M10.5 15H13.5M10.5 15V21C10.5 21.5523 10.9477 22 11.5 22H12.5C13.0523 22 13.5 21.5523 13.5 21V15" stroke="black" stroke-linejoin="round"/>
</svg>
