<svg width="24" height="24" viewBox="0 0 24 24" fill="none" xmlns="http://www.w3.org/2000/svg">
<path d="M11.9977 19.6444C13.1426 19.645 14.2877 20.9679 15.1612 20.0978C17.6659 17.4201 21.2207 13.0406 17.6902 9.52422C16.1422 7.98239 13.3124 9.00004 12 9C10.6876 8.99996 7.85783 7.98239 6.3098 9.52422C2.77933 13.0406 6.33409 17.4201 8.83878 20.0978C9.71113 20.9667 10.8543 19.6438 11.9977 19.6444Z" stroke="black" stroke-linejoin="round"/>
<path d="M15.9029 6.06798C17.0988 4.86681 16.8309 2.65027 16.8309 2.65027C16.8309 2.65027 14.624 2.3812 13.4281 3.58237C12.2322 4.78354 12.5001 7.00009 12.5001 7.00009C12.5001 7.00009 14.7069 7.26915 15.9029 6.06798Z" stroke="black" stroke-linejoin="round"/>
</svg>
