<svg width="24" height="24" viewBox="0 0 24 24" fill="none" xmlns="http://www.w3.org/2000/svg">
<path d="M16 11.5088C16 8.97747 14.468 6.99999 12 6.99999C9.53198 6.99999 8 8.97747 8 11.5088C8 12.753 7.31644 13.8695 6.53502 14.8378C5.93245 15.5844 5.5 16.4804 5.5 17.4167C5.5 19.948 7.50073 22 9.96875 22H14.0312C16.4993 22 18.5 19.948 18.5 17.4167C18.5 16.4804 18.0676 15.5844 17.465 14.8378C16.6836 13.8695 16 12.753 16 11.5088Z" stroke="black" stroke-linejoin="round"/>
<path d="M16 5.09807C17.0762 4.47675 17.8481 2.29903 17.8481 2.29903C17.8481 2.29903 15.5762 1.87867 14.5 2.49999C13.4238 3.12131 12.6519 5.29903 12.6519 5.29903C12.6519 5.29903 14.9238 5.71939 16 5.09807Z" stroke="black" stroke-linejoin="round"/>
</svg>
