<svg width="24" height="24" viewBox="0 0 24 24" fill="none" xmlns="http://www.w3.org/2000/svg">
<path d="M15.5 5.34286V7L14 8.5C14 12.3897 10.4288 15.4286 6.50667 15.4286L6.50648 16.2572M17.2048 5.34286V7L16.4135 9.17293C16.5638 9.72955 16.6426 10.2885 16.6554 10.8401C16.7286 14.0117 13.7272 16.6424 10.5 17.5L10.8496 18.1965M6.50648 16.2572L6.50667 18.7429C7.98576 18.7429 9.4796 18.585 10.8496 18.1965M6.50648 16.2572L4 15.2905L4.76614 12.455C8.12178 13.3467 11.571 11.3718 12.4701 8.04393L13.8036 6.31428V4.65714H13V3H20V4.65714H19.1009V6.31428L19.6415 8.31513C21.1344 13.8403 21.5 19.5 12.2568 21L10.8496 18.1965" stroke="black" stroke-linecap="round" stroke-linejoin="round"/>
</svg>
