<svg width="24" height="24" viewBox="0 0 24 24" fill="none" xmlns="http://www.w3.org/2000/svg">
<path d="M3.81818 10.8182C8.33688 6.29953 15.6631 6.29953 20.1818 10.8182M3.81818 10.8182L2 9.00005C7.52285 3.4772 16.4772 3.4772 22 9.00005L20.1818 10.8182M3.81818 10.8182L12 19L16.4393 14.5607M20.1818 10.8182L18.5607 12.4394M18.5607 12.4394C18.2892 12.1679 17.9142 12 17.5 12C16.6716 12 16 12.6716 16 13.5C16 13.9143 16.1679 14.2893 16.4393 14.5607M18.5607 12.4394L16.4393 14.5607M14 10.5C14 11.0523 13.5523 11.5 13 11.5C12.4477 11.5 12 11.0523 12 10.5C12 9.94776 12.4477 9.50005 13 9.50005C13.5523 9.50005 14 9.94776 14 10.5ZM10.5 13.5C10.5 14.3285 9.82843 15 9 15C8.17157 15 7.5 14.3285 7.5 13.5C7.5 12.6716 8.17157 12 9 12C9.82843 12 10.5 12.6716 10.5 13.5Z" stroke="black" stroke-linejoin="round"/>
</svg>
