<svg width="24" height="24" viewBox="0 0 24 24" fill="none" xmlns="http://www.w3.org/2000/svg">
<path d="M12 9C10.6193 9 9.5 10.1193 9.5 11.5C9.5 12.8807 10.6193 14 12 14C13.3807 14 14.5 12.8807 14.5 11.5C14.5 10.1193 13.3807 9 12 9ZM12 9C11.587 5.68436 12.5707 4.26927 13 2.5M13 2.5H10.5M13 2.5H15.5M11.5 7.5C11.5 8.88071 10.3807 10 9 10C7.61929 10 6.5 8.88071 6.5 7.5C6.5 6.11929 7.61929 5 9 5C10.3807 5 11.5 6.11929 11.5 7.5ZM17.5 7.5C17.5 8.88071 16.3807 10 15 10C13.6193 10 12.5 8.88071 12.5 7.5C12.5 6.11929 13.6193 5 15 5C16.3807 5 17.5 6.11929 17.5 7.5ZM8.5 11.5C8.5 12.8807 7.38071 14 6 14C4.61929 14 3.5 12.8807 3.5 11.5C3.5 10.1193 4.61929 9 6 9C7.38071 9 8.5 10.1193 8.5 11.5ZM20.5 11.5C20.5 12.8807 19.3807 14 18 14C16.6193 14 15.5 12.8807 15.5 11.5C15.5 10.1193 16.6193 9 18 9C19.3807 9 20.5 10.1193 20.5 11.5ZM11.5 15.5C11.5 16.8807 10.3807 18 9 18C7.61929 18 6.5 16.8807 6.5 15.5C6.5 14.1193 7.61929 13 9 13C10.3807 13 11.5 14.1193 11.5 15.5ZM17.5 15.5C17.5 16.8807 16.3807 18 15 18C13.6193 18 12.5 16.8807 12.5 15.5C12.5 14.1193 13.6193 13 15 13C16.3807 13 17.5 14.1193 17.5 15.5ZM14.5 19.5C14.5 20.8807 13.3807 22 12 22C10.6193 22 9.5 20.8807 9.5 19.5C9.5 18.1193 10.6193 17 12 17C13.3807 17 14.5 18.1193 14.5 19.5Z" stroke="black" stroke-linecap="round" stroke-linejoin="round"/>
</svg>
