<svg width="24" height="24" viewBox="0 0 24 24" fill="none" xmlns="http://www.w3.org/2000/svg">
<path d="M14 4.5H19M14 9.5H16.5M14 12.5H15.5M14 7H17.5M14 18C14 19.6569 12.6569 21 11 21C9.34315 21 8 19.6569 8 18C8 16.6938 8.83481 15.5825 10 15.1707V4C10 3.44772 10.4477 3 11 3C11.5523 3 12 3.44772 12 4V15.1707C13.1652 15.5825 14 16.6938 14 18ZM11.5 18C11.5 17.7239 11.2761 17.5 11 17.5C10.7239 17.5 10.5 17.7239 10.5 18C10.5 18.2761 10.7239 18.5 11 18.5C11.2761 18.5 11.5 18.2761 11.5 18Z" stroke="black" stroke-linecap="round" stroke-linejoin="round"/>
</svg>
