<svg width="24" height="24" viewBox="0 0 24 24" fill="none" xmlns="http://www.w3.org/2000/svg">
<path d="M21 7.91062C21 6.69712 19.412 5.62787 17 5V10.8212M21 7.91062C21 9.12411 19.412 10.1934 17 10.8212M21 7.91062V15.9106C21 16.8499 20.0485 17.7028 18.5 18.3314M3 7.91062C3 6.69712 4.58803 5.62787 7 5L7 10.8212M3 7.91062C3 9.12411 4.58803 10.1934 7 10.8212M3 7.91062V15.9106C3 16.7441 3.7492 17.5096 5 18.1107M17 10.8212C15.5699 11.1935 13.8501 11.4106 12 11.4106C10.1499 11.4106 8.4301 11.1935 7 10.8212M5 18.1107C6.64996 18.9036 9.17273 19.4106 12 19.4106C14.5552 19.4106 16.8618 18.9965 18.5 18.3314M5 18.1107L10 13.4106L13 16.4106L14.5 14.4106L18.5 18.3314" stroke="black" stroke-linejoin="round"/>
</svg>
