<svg width="24" height="24" viewBox="0 0 24 24" fill="none" xmlns="http://www.w3.org/2000/svg">
<path d="M5.17071 14C5.58254 12.8348 6.69378 12 8 12H16C17.3062 12 18.4175 12.8348 18.8293 14M5.17071 14C5.06015 14.3128 5 14.6494 5 15C5 16.6569 6.34315 18 8 18H16C17.6569 18 19 16.6569 19 15C19 14.6494 18.9398 14.3128 18.8293 14M5.17071 14L7 8C7.41184 6.83481 8.52308 6 9.82929 6H14.1707C15.4769 6 16.5882 6.83481 17 8L18.8293 14M7 15H11M15.5 15H16.5" stroke="black" stroke-linecap="round" stroke-linejoin="round"/>
</svg>
