<svg width="24" height="24" viewBox="0 0 24 24" fill="none" xmlns="http://www.w3.org/2000/svg">
<path d="M10.6506 9.66085C9.83888 8.88093 8.72677 8.4 7.5 8.4C5.01472 8.4 3 10.3738 3 12.8087C3 15.0686 4.8 16.4024 6.6 15.0686C8.4 13.7349 5.64706 10.2154 8.29412 10.2154C8.87864 10.2154 9.36611 10.3128 9.77476 10.4704M10.6506 9.66085C11.0476 9.43135 11.5085 9.3 12 9.3C12.5679 9.3 13.0948 9.47531 13.5296 9.77476M10.6506 9.66085C10.3019 9.86246 10.0024 10.1398 9.77476 10.4704M9.77476 10.4704C9.47531 10.9052 9.3 11.4321 9.3 12C9.3 12.4915 9.43135 12.9524 9.66085 13.3494M9.66085 13.3494C8.88093 14.1611 8.4 15.2732 8.4 16.5C8.4 18.9853 10.3738 21 12.8087 21C15.0686 21 16.4024 19.2 15.0686 17.4C13.7349 15.6 10.2154 18.3529 10.2154 15.7059C10.2154 15.1214 10.3128 14.6339 10.4704 14.2252M9.66085 13.3494C9.86246 13.6981 10.1398 13.9976 10.4704 14.2252M10.4704 14.2252C10.9052 14.5247 11.4321 14.7 12 14.7C12.4915 14.7 12.9524 14.5687 13.3494 14.3391M13.3494 14.3391C14.1611 15.1191 15.2732 15.6 16.5 15.6C18.9853 15.6 21 13.6262 21 11.1913C21 8.93136 19.2 7.59763 17.4 8.93136C15.6 10.2651 18.3529 13.7846 15.7059 13.7846C15.1214 13.7846 14.6339 13.6872 14.2252 13.5296M13.3494 14.3391C13.6981 14.1375 13.9976 13.8602 14.2252 13.5296M14.2252 13.5296C14.5247 13.0948 14.7 12.5679 14.7 12C14.7 11.5085 14.5687 11.0476 14.3391 10.6506M14.3391 10.6506C15.1191 9.83888 15.6 8.72677 15.6 7.5C15.6 5.01472 13.6262 3 11.1913 3C8.93136 3 7.59763 4.8 8.93136 6.6C10.2651 8.4 13.7846 5.64706 13.7846 8.29412C13.7846 8.87864 13.6872 9.36611 13.5296 9.77476M14.3391 10.6506C14.1375 10.3019 13.8602 10.0024 13.5296 9.77476" stroke="black" stroke-linejoin="round"/>
</svg>
