<svg width="24" height="24" viewBox="0 0 24 24" fill="none" xmlns="http://www.w3.org/2000/svg">
<path d="M10.5696 10.9441C10.8934 10.5062 11.4135 10.2222 12 10.2222C12.3694 10.2222 12.7124 10.3349 12.9967 10.5277M10.5696 10.9441C9.87365 9.49659 9.22065 7.75792 9.51992 6.64104C10.4029 3.3457 14.8603 3.55787 15.9821 4.98695C17.1039 6.41603 13.7317 7.76963 13.0734 10.2265C13.0458 10.3296 13.0203 10.4299 12.9967 10.5277M10.5696 10.9441C10.5552 10.9636 10.5412 10.9834 10.5276 11.0034M10.5276 11.0034C10.3348 11.2877 10.2222 11.6307 10.2222 12C10.2222 12.5865 10.5062 13.1067 10.9442 13.4305M10.5276 11.0034C10.4299 10.9799 10.3296 10.9543 10.2266 10.9267C7.76965 10.2684 6.41604 6.89621 4.98696 8.01803C3.55787 9.13984 3.3457 13.5972 6.64105 14.4802C7.75796 14.7795 9.49667 14.1264 10.9442 13.4305M10.9442 13.4305C10.9636 13.4448 10.9833 13.4588 11.0033 13.4723M10.9442 13.4305L11.0033 13.4723M11.0033 13.4723C11.2876 13.6651 11.6306 13.7778 12 13.7778C12.5865 13.7778 13.1066 13.4938 13.4304 13.0558M11.0033 13.4723C10.9798 13.5701 10.9542 13.6704 10.9266 13.7735C10.2683 16.2304 6.8961 17.584 8.01792 19.013C9.13974 20.4421 13.5971 20.6543 14.4801 17.359C14.7794 16.2421 14.1264 14.5034 13.4304 13.0558M13.4304 13.0558C13.4448 13.0364 13.4587 13.0167 13.4723 12.9967M13.4304 13.0558L13.4723 12.9967M13.4723 12.9967C13.6651 12.7124 13.7778 12.3694 13.7778 12C13.7778 11.4135 13.4938 10.8934 13.0559 10.5696M13.4723 12.9967C13.5701 13.0203 13.6704 13.0458 13.7734 13.0734C16.2304 13.7318 17.584 17.1039 19.013 15.9821C20.4421 14.8603 20.6543 10.4029 17.359 9.51996C16.2421 9.2207 14.5034 9.87368 13.0559 10.5696M12.9967 10.5277C13.0167 10.5413 13.0364 10.5552 13.0559 10.5696M12.9967 10.5277L13.0559 10.5696" stroke="black" stroke-linejoin="round"/>
</svg>
