<svg width="24" height="24" viewBox="0 0 24 24" fill="none" xmlns="http://www.w3.org/2000/svg">
<path d="M9.56959 10.9441C9.8934 10.5062 10.4135 10.2222 11 10.2222C11.3694 10.2222 11.7124 10.3349 11.9967 10.5277M9.56959 10.9441C8.87365 9.49659 8.22065 7.75792 8.51992 6.64103C9.40291 3.3457 13.8603 3.55787 14.9821 4.98695C16.1039 6.41603 12.7317 7.76963 12.0734 10.2265C12.0458 10.3296 12.0203 10.4299 11.9967 10.5277M9.56959 10.9441C9.55521 10.9636 9.54121 10.9834 9.52762 11.0034M9.52762 11.0034C9.33484 11.2877 9.22222 11.6307 9.22222 12C9.22222 12.5865 9.50624 13.1067 9.94425 13.4305M9.52762 11.0034C9.42986 10.9799 9.32958 10.9543 9.22655 10.9267C6.76965 10.2684 5.41604 6.89621 3.98695 8.01803C2.55787 9.13984 2.3457 13.5972 5.64105 14.4802C6.75796 14.7795 8.49667 14.1264 9.94425 13.4305M9.94425 13.4305C9.96364 13.4448 9.98334 13.4588 10.0033 13.4723M9.94425 13.4305L10.0033 13.4723M10.0033 13.4723C10.2876 13.6651 10.6306 13.7778 11 13.7778C11.5865 13.7778 12.1066 13.4938 12.4304 13.0558M10.0033 13.4723C9.97978 13.5701 9.95423 13.6704 9.92661 13.7735C9.26828 16.2304 5.8961 17.584 7.01792 19.013C8.13974 20.4421 12.5971 20.6543 13.4801 17.359C13.7794 16.2421 13.1264 14.5034 12.4304 13.0558M12.4304 13.0558C12.4448 13.0364 12.4587 13.0167 12.4723 12.9967M12.4304 13.0558L12.4723 12.9967M12.4723 12.9967C12.6651 12.7124 12.7778 12.3694 12.7778 12C12.7778 11.4135 12.4938 10.8934 12.0559 10.5696M12.4723 12.9967C12.5701 13.0203 12.6704 13.0458 12.7734 13.0734C15.2304 13.7318 16.584 17.1039 18.013 15.9821C19.4421 14.8603 19.6543 10.4029 16.359 9.51996C15.2421 9.2207 13.5034 9.87368 12.0559 10.5696M11.9967 10.5277C12.0167 10.5413 12.0364 10.5552 12.0559 10.5696M11.9967 10.5277L12.0559 10.5696M21.5 8.01803V13.4723M21.5 15.5V15.9821" stroke="black" stroke-linecap="round" stroke-linejoin="round"/>
</svg>
