<svg width="24" height="24" viewBox="0 0 24 24" fill="none" xmlns="http://www.w3.org/2000/svg">
<path d="M15.646 14.4214L14.6235 13L12.9999 14.168L14.0141 15.5777M15.646 14.4214L17.2862 16.7013L15.6627 17.8693L14.0141 15.5777M15.646 14.4214C16.4857 13.527 16.9999 12.3236 16.9999 11C16.9999 8.23858 14.7614 6 11.9999 6C9.23852 6 6.99994 8.23858 6.99994 11C6.99994 13.7614 9.23852 16 11.9999 16C12.7165 16 13.3979 15.8492 14.0141 15.5777M12 11.5C11.7239 11.5 11.5 11.2761 11.5 11C11.5 10.7239 11.7239 10.5 12 10.5C12.2761 10.5 12.5 10.7239 12.5 11C12.5 11.2761 12.2761 11.5 12 11.5ZM6 20H18C18.5523 20 19 19.5523 19 19V5C19 4.44772 18.5523 4 18 4H6C5.44772 4 5 4.44772 5 5V19C5 19.5523 5.44772 20 6 20Z" stroke="black" stroke-linejoin="round"/>
</svg>
