<svg width="24" height="24" viewBox="0 0 24 24" fill="none" xmlns="http://www.w3.org/2000/svg">
<path d="M12 20C12 20 9 16.5 9 12C9 7.5 12 4 12 4M12 20C12.6667 19 15 16.5 15 12C15 7.5 12.6667 5 12 4M12 20C8.64262 20 5.76829 17.9318 4.58152 15M12 20C15.3574 20 18.2317 17.9318 19.4185 15M12 4C8.64262 4 5.76829 6.06817 4.58152 9M12 4C15.3574 4 18.2317 6.06817 19.4185 9M4.58152 9C4.20651 9.92643 4 10.9391 4 12C4 13.0609 4.20651 14.0736 4.58152 15M4.58152 9H19.4185M19.4185 9C19.7935 9.92643 20 10.9391 20 12C20 13.0609 19.7935 14.0736 19.4185 15M4.58152 15H19.4185" stroke="black"/>
</svg>
