<svg width="24" height="24" viewBox="0 0 24 24" fill="none" xmlns="http://www.w3.org/2000/svg">
<path d="M3 19H9M21 19H15M9 19C9 19.5523 9.44772 20 10 20H14C14.5523 20 15 19.5523 15 19M9 19C9 18.4477 9.44772 18 10 18H12M15 19C15 18.4477 14.5523 18 14 18H12M12 18V14M6 14H18C18.5523 14 19 13.5523 19 13V7C19 6.44772 18.5523 6 18 6H12.4142C12.149 6 11.8946 5.89464 11.7071 5.70711L10.2929 4.29289C10.1054 4.10536 9.851 4 9.58579 4H6C5.44772 4 5 4.44772 5 5V13C5 13.5523 5.44772 14 6 14Z" stroke="black" stroke-linecap="round" stroke-linejoin="round"/>
</svg>
