<svg width="24" height="24" viewBox="0 0 24 24" fill="none" xmlns="http://www.w3.org/2000/svg">
<path d="M3 19H9M9 19C9 19.5523 9.44772 20 10 20H14C14.5523 20 15 19.5523 15 19M9 19C9 18.4477 9.44772 18 10 18H12M15 19H21M15 19C15 18.4477 14.5523 18 14 18H12M12 18V14M12 14H16C16.5523 14 17 13.5523 17 13V5C17 4.44772 16.5523 4 16 4H8C7.44772 4 7 4.44772 7 5V13C7 13.5523 7.44772 14 8 14H12ZM9.5 6.5V12M12 9V6.5H14C14.5523 6.5 15 6.94772 15 7.5V8C15 8.55228 14.5523 9 14 9H12ZM12 9V12" stroke="black" stroke-linecap="round" stroke-linejoin="round"/>
</svg>
