<svg width="24" height="24" viewBox="0 0 24 24" fill="none" xmlns="http://www.w3.org/2000/svg">
<path d="M3 19H9M21 19H15M9 19C9 19.5523 9.44772 20 10 20H14C14.5523 20 15 19.5523 15 19M9 19C9 18.4477 9.44772 18 10 18H12M15 19C15 18.4477 14.5523 18 14 18H12M12 18V14M8 10.5V12.5M10 10.5V12.5M12 10.5V12.5M8.42853 5.63659C9.41427 5.06666 10.6537 4.72718 12 4.72718C13.3462 4.72718 14.5857 5.06666 15.5714 5.63659M7 4.27317C8.38003 3.47527 10.1152 3 12 3C13.8848 3 15.62 3.47527 17 4.27317M9.85707 7C10.4485 6.65804 11.1922 6.45435 11.9999 6.45435C12.8077 6.45435 13.5513 6.65804 14.1428 7M6 14H18C18.5523 14 19 13.5523 19 13V10C19 9.44771 18.5523 9 18 9H6C5.44772 9 5 9.44771 5 10V13C5 13.5523 5.44772 14 6 14Z" stroke="black" stroke-linecap="round" stroke-linejoin="round"/>
</svg>
