<svg width="24" height="24" viewBox="0 0 24 24" fill="none" xmlns="http://www.w3.org/2000/svg">
<path d="M3 19H9M21 19H15M9 19C9 19.5523 9.44772 20 10 20H14C14.5523 20 15 19.5523 15 19M9 19C9 18.4477 9.44772 18 10 18H12M15 19C15 18.4477 14.5523 18 14 18H12M12 18V15M12 15C12 15 9.75 12.375 9.75 9C9.75 5.625 12 3 12 3M12 15C12.5 14.25 14.25 12.375 14.25 9C14.25 5.625 12.5 3.75 12 3M12 15C9.48197 15 7.32622 13.4489 6.43614 11.25M12 15C14.518 15 16.6738 13.4489 17.5639 11.25M12 3C9.48197 3 7.32622 4.55113 6.43614 6.75M12 3C14.518 3 16.6738 4.55113 17.5639 6.75M6.43614 6.75C6.15488 7.44482 6 8.20432 6 9C6 9.79568 6.15488 10.5552 6.43614 11.25M6.43614 6.75H17.5639M17.5639 6.75C17.8451 7.44482 18 8.20432 18 9C18 9.79568 17.8451 10.5552 17.5639 11.25M6.43614 11.25H17.5639" stroke="black" stroke-linecap="round"/>
</svg>
