<svg width="24" height="24" viewBox="0 0 24 24" fill="none" xmlns="http://www.w3.org/2000/svg">
<path d="M3 19H9M21 19H15M9 19C9 19.5523 9.44772 20 10 20H14C14.5523 20 15 19.5523 15 19M9 19C9 18.4477 9.44772 18 10 18H12M15 19C15 18.4477 14.5523 18 14 18H12M12 18V14M7.65066 14.5715C6.86153 13.5857 6.39148 12.3463 6.39148 11C6.39148 9.65378 6.86153 8.41435 7.65066 7.42861M5.76286 16C4.65808 14.62 4.00002 12.8848 4.00002 11C4.00002 9.11524 4.65808 7.38003 5.76286 6M9.53845 13.1429C9.06497 12.5515 8.78295 11.8078 8.78295 11.0001C8.78295 10.1923 9.06497 9.44866 9.53845 8.85722M16.3494 7.42853C17.1385 8.41427 17.6085 9.65371 17.6085 11C17.6085 12.3462 17.1385 13.5857 16.3494 14.5714M18.2372 6C19.3419 7.38003 20 9.11524 20 11C20 12.8848 19.3419 14.62 18.2372 16M14.4616 8.85707C14.935 9.44851 15.2171 10.1922 15.2171 10.9999C15.2171 11.8077 14.935 12.5513 14.4616 13.1428M11.9616 9.92857C12.5351 9.92857 13 10.4083 13 11C13 11.5917 12.5351 12.0714 11.9616 12.0714C11.388 12.0714 10.9231 11.5917 10.9231 11C10.9231 10.4083 11.388 9.92857 11.9616 9.92857Z" stroke="black" stroke-linecap="round" stroke-linejoin="round"/>
</svg>
