<svg width="24" height="24" viewBox="0 0 24 24" fill="none" xmlns="http://www.w3.org/2000/svg">
<path d="M3 19H9M21 19H15M9 19C9 19.5523 9.44772 20 10 20H14C14.5523 20 15 19.5523 15 19M9 19C9 18.4477 9.44772 18 10 18H12M15 19C15 18.4477 14.5523 18 14 18H12M12 18V14M10 8C10 7 11 6 12 6C13 6 14 6.5 14 7.5C14 8.15039 13.5065 8.80079 12.9321 9.17606C12.4698 9.47815 12 9.94772 12 10.5M12 12V12.5M8 14H16C16.5523 14 17 13.5523 17 13V5C17 4.44772 16.5523 4 16 4H8C7.44772 4 7 4.44772 7 5V13C7 13.5523 7.44772 14 8 14Z" stroke="black" stroke-linecap="round" stroke-linejoin="round"/>
</svg>
