<svg width="24" height="24" viewBox="0 0 24 24" fill="none" xmlns="http://www.w3.org/2000/svg">
<path d="M7.5 5H6C5.44772 5 5 5.44772 5 6V18C5 18.5523 5.44772 19 6 19H19C19.5523 19 20 18.5523 20 18V9.41421C20 9.149 19.8946 8.89464 19.7071 8.70711L16.2929 5.29289C16.1054 5.10536 15.851 5 15.5858 5H13M7.5 5V8.5C7.5 9.05228 7.94772 9.5 8.5 9.5H12C12.5523 9.5 13 9.05228 13 8.5V5M7.5 5H13M15.5 14C15.5 15.3807 14.3807 16.5 13 16.5C11.6193 16.5 10.5 15.3807 10.5 14C10.5 12.6193 11.6193 11.5 13 11.5C14.3807 11.5 15.5 12.6193 15.5 14Z" stroke="black" stroke-linejoin="round"/>
</svg>
