<svg width="24" height="24" viewBox="0 0 24 24" fill="none" xmlns="http://www.w3.org/2000/svg">
<path d="M7.54545 9.42857H4C3.44772 9.42857 3 9.87629 3 10.4286V13.5714C3 14.1237 3.44771 14.5714 4 14.5714H7.54545M7.54545 9.42857V14.5714M7.54545 9.42857L10.9857 6.26402C11.1703 6.09423 11.4119 6 11.6627 6H12.5C13.0523 6 13.5 6.44772 13.5 7V17C13.5 17.5523 13.0523 18 12.5 18H11.6627C11.4119 18 11.1703 17.9058 10.9857 17.736L7.54545 14.5714M18.0451 6.99995C18.9 8.37998 19.4092 10.1152 19.4092 11.9999C19.4092 13.8847 18.9 15.6199 18.0451 16.9999M20.0902 5C21.2871 6.93204 22 9.36134 22 12C22 14.6387 21.2871 17.068 20.0902 19M16 8.9999C16.5129 9.82791 16.8185 10.869 16.8185 11.9999C16.8185 13.1307 16.5129 14.1719 16 14.9999" stroke="black" stroke-linecap="round" stroke-linejoin="round"/>
</svg>
