<svg width="24" height="24" viewBox="0 0 24 24" fill="none" xmlns="http://www.w3.org/2000/svg">
<path d="M6.99995 11.2731C8.37998 10.1333 10.1152 9.4543 11.9999 9.4543C13.8847 9.4543 15.6199 10.1333 16.9999 11.2731M5 8.54629C6.93204 6.95049 9.36134 5.99994 12 5.99994C14.6387 5.99994 17.068 6.95049 19 8.54629M8.99989 13.9999C9.82791 13.316 10.869 12.9087 11.9999 12.9087C13.1307 12.9087 14.1719 13.316 14.9999 13.9999M13.5 17.5C13.5 18.3284 12.8284 19 12 19C11.1716 19 10.5 18.3284 10.5 17.5C10.5 16.6716 11.1716 16 12 16C12.8284 16 13.5 16.6716 13.5 17.5Z" stroke="black" stroke-linecap="round" stroke-linejoin="round"/>
</svg>
