<svg width="24" height="24" viewBox="0 0 24 24" fill="none" xmlns="http://www.w3.org/2000/svg">
<path d="M15.6598 21.97C16.9998 21.95 17.8798 20.74 18.7098 19.5C19.6698 18.11 20.0598 16.74 20.0898 16.67C20.0598 16.66 17.4398 15.65 17.4098 12.63C17.3898 10.1 19.4698 8.88 19.5598 8.82C18.3898 7.1 16.5698 6.87 15.9198 6.84C14.3698 6.68 12.8898 7.75 12.1098 7.75C11.3198 7.75 10.0998 6.86 8.81985 6.88C7.12985 6.91 5.56985 7.87 4.69985 9.39C2.93985 12.45 4.24985 17 5.95985 19.47C6.79985 20.68 7.78985 22.05 9.09985 22C10.3698 21.95 10.8398 21.18 12.3698 21.18C13.8898 21.18 14.3198 22 15.6598 21.97Z" stroke="black" stroke-linejoin="round"/>
<path d="M15.9398 2C14.9398 2.04 13.7298 2.67 12.9998 3.5C12.3598 4.26 11.7998 5.46 11.9498 6.61C13.0698 6.7 14.2098 6.04 14.8998 5.19C15.5998 4.35 16.0698 3.17 15.9398 2Z" stroke="black" stroke-linejoin="round"/>
</svg>
