<svg width="24" height="24" viewBox="0 0 24 24" fill="none" xmlns="http://www.w3.org/2000/svg">
<path d="M17.92 15.44C20.55 12.04 21.91 9.37 22 7.42C22.12 4.81 21.15 3.47 19.09 3.41C16.32 3.32 14.44 4.89 13.46 8.12C13.97 7.9 14.46 7.79 14.94 7.79C15.96 7.79 16.41 8.36 16.29 9.5C16.23 10.2 15.78 11.21 14.94 12.53C14.1 13.86 13.47 14.5 13.05 14.5C12.5 14.5 12 13.5 11.57 11.46C11.42 10.86 11.15 9.33 10.76 6.86C10.4 4.58 9.44 3.5 7.88 3.66C7.23 3.72 6.24 4.32 4.92 5.46C3.96 6.33 3 7.2 2 8.07L2.94 9.29C3.84 8.66 4.36 8.34 4.5 8.34C5.2 8.34 5.84 9.42 6.44 11.58C7 13.56 7.5 15.54 8.05 17.5C8.86 19.67 9.85 20.75 11 20.75C12.9 20.75 15.2 19 17.92 15.44Z" stroke="black" stroke-linejoin="round"/>
</svg>
