<svg width="24" height="24" viewBox="0 0 24 24" fill="none" xmlns="http://www.w3.org/2000/svg">
<path d="M6.06548 15.8648C6.06548 15.8648 5.69862 15.082 6.24909 14.3314C6.79956 13.5807 7.08189 11.9188 7.49355 11.1924C7.9052 10.4661 9.36735 9.28763 9.36735 8.55778C9.36735 7.82792 9.1049 5.06557 9.1885 4.51475C9.27211 3.96393 9.48863 2.15555 11.9244 2.15555C14.3601 2.15555 14.889 3.89693 14.9929 4.51475C15.0968 5.13257 15.0921 7.03786 15.2434 7.61678C15.3947 8.1957 15.7811 8.80646 16.2068 9.6013C16.6324 10.3961 17.5078 10.7193 18.095 12.318C18.6821 13.9166 18.7011 15.1011 18.6152 15.4778C18.5723 15.6658 18.4475 15.9481 18.2875 16.2249M6.06548 15.8648C6.06548 15.8648 6.34112 15.5373 6.66053 15.5383C6.97994 15.5392 7.21884 15.8384 7.21884 15.8384C7.21884 15.8384 7.76249 16.5473 7.99949 16.9091C8.23649 17.2709 9.14587 18.6632 9.14587 18.6632M6.06548 15.8648C5.86312 16.2211 5.81423 16.4447 5.48755 16.6207C5.16086 16.7966 4.48085 16.5321 4.16672 16.9091C3.85259 17.2861 4.16672 18.3292 4.10387 18.8822C4.04102 19.4351 3.65145 19.5105 3.70173 20.0886C3.75201 20.6667 5.93876 21.0061 6.78071 21.2323C7.62267 21.4584 9.08054 22.4513 9.83456 21.2323C9.9097 21.1108 9.96664 20.9944 10.0079 20.8826M15.7826 15.9239C15.7826 15.9239 15.7019 16.9415 16.2343 17.199C16.7668 17.4565 17.3784 17.2716 17.7464 16.9408C17.9308 16.775 18.1269 16.5027 18.2875 16.2249M15.7826 15.9239C15.5267 15.85 15.1029 15.8012 14.9647 16.0223C14.7939 16.2956 14.8755 17.3165 14.8637 18.0792M15.7826 15.9239C15.8734 15.0081 15.8584 14.3114 15.7893 13.5046C15.7209 12.7055 15.1135 11.5619 14.7557 11.1924C14.5777 11.0087 14.595 10.3364 14.2429 9.6013C13.9252 8.93826 13.5381 8.08685 13.5381 8.08685M13.5381 8.08685C13.64 7.91153 13.6807 7.67496 13.6752 7.43292C13.6708 7.24034 13.5839 7.15515 13.3421 7.08996M13.5381 8.08685C13.0404 8.39207 12.4624 8.76116 12.0069 9.01377C11.5514 9.26639 10.7975 9.18619 10.5493 8.92579C10.3011 8.66538 10.1209 8.35525 9.95107 8.1957M9.95107 8.1957C9.83155 8.08685 9.64597 8.00964 9.60707 7.91153C9.56817 7.81341 9.6037 7.63091 9.75326 7.43292C9.81266 7.35431 9.89765 7.25136 9.99343 7.14611M9.95107 8.1957C9.95107 8.1957 9.94037 8.59145 9.87197 9.01377C9.80356 9.4361 9.10375 10.2552 8.98051 10.506C8.85726 10.7568 8.91972 11.1816 8.81293 11.5534C8.70613 11.9252 8.16537 12.5455 7.9052 13.299C7.64503 14.0526 7.99949 15.0692 7.99949 15.0692C7.99949 15.0692 9.51373 16.6154 9.83456 17.0187C10.1554 17.422 10.2757 17.9265 9.97547 18.3763C9.67521 18.8262 9.14587 18.6632 9.14587 18.6632M9.14587 18.6632C9.29685 18.9288 9.5704 19.2061 9.78539 19.5264M18.2875 16.2249C18.8976 16.208 18.5695 17.1411 19.2695 17.8082C19.9695 18.4752 20.3145 18.3324 20.3021 18.9325C20.2897 19.5326 18.6384 20.1143 17.8302 20.7338C17.0219 21.3534 16.0455 22.3057 15.0336 21.588C14.8601 21.4649 14.738 21.3154 14.6553 21.1485M10.8279 6.54301C11.0907 6.44006 11.407 6.3608 11.6292 6.40163C11.7368 6.4214 11.8801 6.48188 12.0389 6.55851M10.8279 6.54301C10.8689 6.46742 10.934 6.36374 11.0117 6.26489M10.8279 6.54301C10.6749 6.60294 10.5401 6.6709 10.4526 6.72786C10.3092 6.82121 10.1389 6.98632 9.99343 7.14611M12.0389 6.55851C11.9959 6.47469 11.923 6.35361 11.8349 6.24244M12.0389 6.55851C12.2719 6.67096 12.5384 6.81817 12.7746 6.92245C12.9607 7.00464 13.1481 7.03764 13.3421 7.08996M9.99343 7.14611C9.86465 7.0853 9.69193 6.73445 9.64201 6.40163C9.58087 5.99399 9.5873 5.18941 10.0465 5.07223C10.5056 4.95506 10.7243 5.25332 10.8279 5.51696C10.9108 5.72787 10.985 6.10346 11.0117 6.26489M11.0117 6.26489C11.1394 6.10261 11.3015 5.95334 11.4482 5.96271C11.5813 5.9712 11.7209 6.09853 11.8349 6.24244M11.8349 6.24244C11.8016 6.09306 11.8289 5.73883 11.9244 5.51696C12.0437 5.23962 12.3565 4.85028 12.7368 4.88577C13.3421 4.94227 13.7098 5.48225 13.6752 6.10506C13.6475 6.6033 13.4416 6.96926 13.3421 7.08996M9.78539 19.5264C10.1013 19.7087 11.3042 20.0162 12.0094 19.887C13.4268 19.6273 14.1629 18.7349 14.8637 18.0792M9.78539 19.5264C10.0376 19.9022 10.2092 20.3374 10.0079 20.8826M14.8637 18.0792C14.8612 18.2392 14.8546 18.3879 14.8407 18.5158C14.7742 19.1273 14.2556 20.3418 14.6553 21.1485M10.0079 20.8826C10.2193 20.8098 10.921 20.6781 12.0372 20.7338C13.1534 20.7896 14.2477 21.0335 14.6553 21.1485" stroke="black"/>
</svg>
