<svg width="24" height="24" viewBox="0 0 24 24" fill="none" xmlns="http://www.w3.org/2000/svg">
<path d="M12.6172 3.13L12.5801 3.13001C12.2701 3.13001 11.9601 3.22001 11.7101 3.39001C11.2101 3.74001 11.1501 4.32001 11.6001 4.69001L14.4601 7.00001L6 7.03001H5.72012C5.00012 7.03001 4.30012 7.50001 4.16012 8.10001C4.00012 8.71001 4.50012 9.22001 5.26012 9.22001L9.69012 9.21001L1.76012 15.3C1.00012 15.87 0.770122 16.82 1.24012 17.42C1.72012 18.03 2.73012 18.03 3.50012 17.42L7.80012 13.89C7.80012 13.89 7.73012 14.37 7.74012 14.65C7.74012 14.94 7.84012 15.5 7.97012 15.93C8.26012 16.86 8.75012 17.71 9.43012 18.46C10.1301 19.23 11.0001 19.85 12.0001 20.29C13.0301 20.76 14.1701 21 15.3401 21C16.5001 21 17.6501 20.75 18.6901 20.28C19.6901 19.84 20.5501 19.21 21.2501 18.44C21.9301 17.69 22.4201 16.83 22.7101 15.91C22.8501 15.44 22.9401 14.97 23.0001 14.5C23.0001 14.03 23.0001 13.56 22.9401 13.09C22.8101 12.18 22.5001 11.32 22.0001 10.54C21.5601 9.83001 21.0001 9.20001 20.3101 8.67001L13.4201 3.38001C13.1901 3.21001 12.9272 3.13 12.6172 3.13ZM18.4601 10.29C18.9001 10.65 19.2501 11.07 19.5001 11.54C19.7701 12 19.9401 12.55 20.0001 13.11C20.0401 13.67 19.9601 14.23 19.7701 14.77C19.5701 15.31 19.2501 15.81 18.8201 16.26C17.9301 17.16 16.6901 17.68 15.3401 17.68C14.0001 17.68 12.7501 17.17 11.8601 16.27C11.4301 15.83 11.1101 15.32 10.9101 14.78C10.7201 14.25 10.6401 13.69 10.6901 13.12C10.7401 12.56 10.9101 12.03 11.1701 11.55C11.4301 11.08 11.7901 10.66 12.2301 10.3C13.0901 9.59001 14.1901 9.21001 15.3401 9.21001C16.5001 9.21001 17.5901 9.59001 18.4601 10.29Z" stroke="black" stroke-linejoin="round"/>
<path d="M15.4401 10.61C14.6601 10.61 13.9401 10.89 13.4101 11.34C12.8701 11.8 12.5001 12.44 12.4701 13.18C12.4301 13.93 12.7301 14.63 13.2601 15.15C13.8001 15.68 14.5801 16 15.4401 16C16.3001 16 17.0701 15.68 17.6201 15.15C18.1501 14.63 18.4501 13.93 18.4101 13.18C18.3701 12.44 18.0001 11.8 17.4701 11.34C16.9401 10.89 16.2201 10.61 15.4401 10.61Z" stroke="black" stroke-linejoin="round"/>
</svg>
