<svg width="24" height="24" viewBox="0 0 24 24" fill="none" xmlns="http://www.w3.org/2000/svg">
<g clip-path="url(#clip0_1290_1274)">
<path d="M15.3197 10.0749C18.1484 14.9744 18.9595 19.8018 17.1315 20.8572C15.3034 21.9127 11.5283 18.7965 8.69964 13.897C5.87094 8.99758 5.05978 4.17019 6.88785 3.11475C8.71593 2.05931 12.491 5.17549 15.3197 10.0749ZM13.544 12C13.544 12.8528 12.8527 13.5441 11.9999 13.5441C11.1471 13.5441 10.4558 12.8528 10.4558 12C10.4558 11.1472 11.1471 10.4558 11.9999 10.4558C12.8527 10.4558 13.544 11.1472 13.544 12ZM8.69974 10.0749C5.87104 14.9744 5.05988 19.8018 6.88796 20.8572C8.71603 21.9127 12.4911 18.7965 15.3198 13.897C18.1485 8.99758 18.9596 4.17019 17.1316 3.11475C15.3035 2.05931 11.5284 5.17549 8.69974 10.0749ZM12.0098 15.8081C6.35241 15.8081 1.76619 14.0969 1.76619 11.986C1.76619 9.87515 6.35241 8.16394 12.0098 8.16394C17.6672 8.16394 22.2534 9.87515 22.2534 11.986C22.2534 14.0969 17.6672 15.8081 12.0098 15.8081Z" stroke="black"/>
</g>
<defs>
<clipPath id="clip0_1290_1274">
<rect width="24" height="24" fill="white"/>
</clipPath>
</defs>
</svg>
