<svg width="24" height="24" viewBox="0 0 24 24" fill="none" xmlns="http://www.w3.org/2000/svg">
<path d="M21.84 9.07C21.78 8.27 21.69 7.64 21.56 7.17C21.31 6.27 20.73 5.69 19.83 5.44C18.8 5.16 16.19 5 12 5L10.41 5.06C9.31 5.06 8.12 5.09 6.82 5.16C5.5 5.22 4.64 5.31 4.17 5.44C3.27 5.69 2.69 6.27 2.44 7.17C2.16 8.2 2 9.81 2 12C2 12.9848 2.07412 13.9485 2.16 14.93C2.22 15.73 2.31 16.36 2.44 16.83C2.69 17.73 3.27 18.31 4.17 18.56C5.2 18.84 7.81 19 12 19L13.59 18.94C14.69 18.94 15.88 18.91 17.18 18.84C18.5 18.78 19.36 18.69 19.83 18.56C20.73 18.31 21.31 17.73 21.56 16.83C21.84 15.8 22 14.19 22 12C22 11.0155 21.9259 10.0512 21.84 9.07Z" stroke="black" stroke-linejoin="round"/>
</svg>
