<svg width="24" height="24" viewBox="0 0 24 24" fill="none" xmlns="http://www.w3.org/2000/svg">
<path d="M12.5801 3.13L12.6172 3.13C12.9272 3.13 13.1901 3.21 13.4201 3.38L20.3101 8.67C21.0001 9.2 21.5601 9.83 22.0001 10.54C22.5001 11.32 22.8101 12.18 22.9401 13.09C23.0001 13.56 23.0001 14.03 23.0001 14.5C22.9401 14.97 22.8501 15.44 22.7101 15.91C22.4201 16.83 21.9301 17.69 21.2501 18.44C20.5501 19.21 19.6901 19.84 18.6901 20.28C17.6501 20.75 16.5001 21 15.3401 21C14.1701 21 13.0301 20.76 12.0001 20.29C11.0001 19.85 10.1301 19.23 9.43012 18.46C8.75012 17.71 8.26012 16.86 7.97012 15.93C7.84012 15.5 7.74012 14.94 7.74012 14.65C7.73012 14.37 7.80012 13.89 7.80012 13.89L3.50012 17.42C2.73012 18.03 1.72012 18.03 1.24012 17.42C0.770122 16.82 1.00012 15.87 1.76012 15.3L9.69012 9.21L5.26012 9.22001C4.50012 9.22001 4.00012 8.71001 4.16012 8.10001C4.30012 7.50001 5.00012 7.03 5.72012 7.03H6L14.4601 7L11.6001 4.69C11.1501 4.32 11.2101 3.74 11.7101 3.39C11.9601 3.22 12.2701 3.13 12.5801 3.13Z" stroke="black" stroke-linejoin="round"/>
</svg>
