<svg width="24" height="24" viewBox="0 0 24 24" fill="none" xmlns="http://www.w3.org/2000/svg">
<path d="M11.9989 4.85648L12 10.7267M12 10.7267C12.6001 10.7267 13.1386 10.991 13.5051 11.4096M12 10.7267C11.3999 10.7267 10.8614 10.991 10.4949 11.4096M17.9989 7.72665L13.5664 11.3555L13.5051 11.4096M5.99892 7.72665L10.4336 11.3555L10.4949 11.4096M4.45557 14.2746L9.9627 13.0553H10.0269M19.55 14.2746L14.0508 13.0508L13.977 13.0308M8.66321 19.5814L11.0352 14.543L11.059 14.4919M15.3596 19.5814L12.9697 14.543L12.941 14.4919M10.0269 13.0553C10.0092 12.9484 10 12.8386 10 12.7267C10 12.2222 10.1867 11.7614 10.4949 11.4096M10.0269 13.0553C10.1299 13.6786 10.5211 14.2046 11.059 14.4919M11.059 14.4919C11.3395 14.6417 11.6598 14.7267 12 14.7267C12.3402 14.7267 12.6605 14.6417 12.941 14.4919M12.941 14.4919C13.486 14.2008 13.8803 13.6647 13.977 13.0308M13.977 13.0308C13.9922 12.9316 14 12.83 14 12.7267C14 12.2222 13.8133 11.7614 13.5051 11.4096M18 12.7267C18 16.0404 15.3137 18.7267 12 18.7267C8.68629 18.7267 6 16.0404 6 12.7267C6 9.41295 8.68629 6.72665 12 6.72665C15.3137 6.72665 18 9.41295 18 12.7267ZM12.0026 1.50961L20.6079 5.65371L22.7332 14.9654L16.7782 22.4328H7.22703L1.27197 14.9654L3.39731 5.65371L12.0026 1.50961Z" stroke="black" stroke-linecap="round" stroke-linejoin="round"/>
</svg>
