<svg width="24" height="24" viewBox="0 0 24 24" fill="none" xmlns="http://www.w3.org/2000/svg">
<path d="M2 12.06C2 6.53 6.5 2.04 12 2.04C17.5 2.04 22 6.53 22 12.06C22.0054 14.4456 21.1576 16.7546 19.6099 18.5701C18.0622 20.3855 15.9164 21.5878 13.56 21.96V14.96H15.89L16.34 12.06H13.56V10.18C13.56 9.39 13.95 8.62 15.19 8.62H16.45V6.15C16.45 6.15 15.31 5.96 14.22 5.96C11.93 5.96 10.44 7.34 10.44 9.85V12.06H7.9V14.96H10.44V21.96C5.66 21.21 2 17.06 2 12.06Z" stroke="black" stroke-linejoin="round"/>
</svg>
