<svg width="24" height="24" viewBox="0 0 24 24" fill="none" xmlns="http://www.w3.org/2000/svg">
<path d="M4.82178 10.7954H2.00181V8.00982H4.82178M4.82178 10.7954H7.55884M4.82178 10.7954V8.00982M13.1974 10.7954H16.0018V8.00982H13.1974M13.1974 10.7954H10.4355M13.1974 10.7954V8.00982M7.55884 5.19539H4.82178V8.00982M7.55884 5.19539H10.4355M7.55884 5.19539V8.00982M7.55884 10.7954H10.4355M7.55884 10.7954V8.00982M10.4355 5.19539H13.1974M10.4355 5.19539V2.39798H13.1974V5.19539M10.4355 5.19539V8.00982M13.1974 5.19539V8.00982M10.4355 10.7954V8.00982M4.82178 8.00982H7.55884M7.55884 8.00982H10.4355M10.4355 8.00982H13.1974M22.6587 10.574C22.1439 10.2394 20.791 10.0966 19.8075 10.3523C19.7544 9.4066 19.2493 8.60969 18.3252 7.91436L17.9831 7.69268L17.7551 8.02507C17.3069 8.68179 17.1181 9.55671 17.185 10.352C17.2378 10.842 17.4144 11.3929 17.7551 11.7925C16.475 12.5093 15.2951 12.3466 10.0696 12.3466H2.00181C1.97821 13.4855 2.16787 15.6766 3.61127 17.4602C3.77066 17.6572 3.9456 17.8478 4.13526 18.0314C5.30875 19.1658 7.08176 19.9976 9.73309 20C13.7778 20.0035 17.2433 17.8931 19.3512 12.7902C20.0449 12.8012 21.8759 12.9103 22.772 11.2387C22.794 11.2106 23 10.7954 23 10.7954L22.6587 10.574Z" stroke="black" stroke-linejoin="round"/>
</svg>
