<svg width="24" height="24" viewBox="0 0 24 24" fill="none" xmlns="http://www.w3.org/2000/svg">
<path d="M18.8475 6.70602L16.8069 9.97104M5.1527 6.70602L7.1933 9.97099M16.8069 9.97104C15.3658 9.23073 13.7317 8.81292 12.0001 8.81292C10.2685 8.81292 8.63444 9.23071 7.1933 9.97099M16.8069 9.97104C19.9119 11.566 22.1215 14.6581 22.4825 18.294H1.51758C1.87857 14.6581 4.08823 11.566 7.1933 9.97099M8.05843 14.4441C8.05843 14.936 7.65967 15.3347 7.16778 15.3347C6.67589 15.3347 6.27713 14.936 6.27713 14.4441C6.27713 13.9522 6.67589 13.5534 7.16778 13.5534C7.65967 13.5534 8.05843 13.9522 8.05843 14.4441ZM17.7468 14.4441C17.7468 14.936 17.348 15.3347 16.8561 15.3347C16.3642 15.3347 15.9655 14.936 15.9655 14.4441C15.9655 13.9522 16.3642 13.5534 16.8561 13.5534C17.348 13.5534 17.7468 13.9522 17.7468 14.4441Z" stroke="black" stroke-linecap="round" stroke-linejoin="round"/>
</svg>
