<svg width="24" height="24" viewBox="0 0 24 24" fill="none" xmlns="http://www.w3.org/2000/svg">
<path opacity="0.8" d="M16.9079 9.05687C16.3423 6.19123 13.241 4 9.5 4C5.35786 4 2 6.68629 2 10C2 11.8328 3.02724 13.4737 4.64624 14.5742L3.99777 16.9944L6.4811 15.4941C7.40477 15.8194 8.42602 16 9.5 16C9.82987 16 10.1548 15.983 10.4734 15.9499M16.9079 9.05687C16.6118 9.01942 16.3086 9 16 9C12.6863 9 10 11.2386 10 14C10 14.6918 10.1686 15.3507 10.4734 15.9499M16.9079 9.05687C19.7908 9.42151 22 11.4958 22 14C22 15.6823 21.003 17.1705 19.4746 18.0768L19.9977 20L17.9008 18.7439C17.3035 18.91 16.6643 19 16 19C13.5164 19 11.3853 17.7425 10.4734 15.9499M14.9941 12.4946C14.9941 13.0464 14.5469 13.4937 13.9951 13.4937C13.4434 13.4937 12.9961 13.0464 12.9961 12.4946C12.9961 11.9429 13.4434 11.4956 13.9951 11.4956C14.5469 11.4956 14.9941 11.9429 14.9941 12.4946ZM19.002 12.4946C19.002 13.0464 18.5547 13.4937 18.0029 13.4937C17.4512 13.4937 17.0039 13.0464 17.0039 12.4946C17.0039 11.9429 17.4512 11.4956 18.0029 11.4956C18.5547 11.4956 19.002 11.9429 19.002 12.4946ZM7.49902 7.5C7.49902 8.05175 7.05175 8.49902 6.5 8.49902C5.94825 8.49902 5.50098 8.05175 5.50098 7.5C5.50098 6.94825 5.94825 6.50098 6.5 6.50098C7.05175 6.50098 7.49902 6.94825 7.49902 7.5ZM12.5029 7.5C12.5029 8.05175 12.0557 8.49902 11.5039 8.49902C10.9522 8.49902 10.5049 8.05175 10.5049 7.5C10.5049 6.94825 10.9522 6.50098 11.5039 6.50098C12.0557 6.50098 12.5029 6.94825 12.5029 7.5Z" stroke="black" stroke-linejoin="round"/>
</svg>
