<svg width="24" height="24" viewBox="0 0 24 24" fill="none" xmlns="http://www.w3.org/2000/svg">
<path d="M2.37814 6.12458C3.18394 5.77738 5.00777 5.24807 5.85666 5.90839C6.51614 6.42138 6.68984 7.61753 6.71271 8.60049M6.6623 9.95674C6.61513 10.4598 6.98328 11.1621 7.17325 11.4503M6.6623 9.95674C6.68461 9.71871 6.72663 9.19914 6.71271 8.60049M6.6623 9.95674C5.85656 10.7952 4.21777 11.8903 3.12494 11.1359C1.85879 10.2617 2.56212 8.82561 3.69485 8.36493C4.52852 8.02587 6.04084 8.35165 6.71271 8.60049M8.57361 5.71134L10.3315 11.4503L12.2567 5.71134L14.0983 11.4503L16.0026 5.71134M21.3844 5.80095C20.7172 5.51349 19.3771 5.13017 18.4824 5.80098C17.4322 6.58837 18.0435 7.96161 19.3954 8.36493C20.8165 8.78887 21.5188 8.92917 21.5188 9.8599C21.5188 11.0366 20.1551 11.8831 17.7145 11.0606M1.15918 13.7077C2.68735 14.9022 6.90594 17.2913 11.555 17.2913C16.2041 17.2913 19.6692 15.8062 20.8207 15.0636M18.9748 14C19.8977 13.6446 22.1015 13.4783 22.4293 13.806C22.7571 14.1338 21.9442 16.207 21.3623 17.0697" stroke="black" stroke-linecap="round" stroke-linejoin="round"/>
</svg>
