<svg width="24" height="24" viewBox="0 0 24 24" fill="none" xmlns="http://www.w3.org/2000/svg">
<path d="M15.34 13.16C16.66 13.16 18.56 12.89 18.56 11.32C18.57 11.2 18.56 11.08 18.53 10.96L17.75 7.55999C17.57 6.80999 17.41 6.46999 16.09 5.80999C15.07 5.28999 12.85 4.42999 12.19 4.42999C11.58 4.42999 11.4 5.21999 10.67 5.21999C9.97 5.21999 9.45 4.62999 8.79 4.62999C8.16 4.62999 7.75 5.05999 7.43 5.93999C7.43 5.93999 6.55 8.43999 6.43 8.79999C6.42 8.86999 6.41 8.92999 6.41 8.99999C6.41 9.96999 10.23 13.15 15.34 13.15M18.77 11.96C18.95 12.82 18.95 12.91 18.95 13C18.95 14.5 17.29 15.31 15.12 15.31C10.2 15.31 5.89 12.43 5.89 10.53C5.89 10.26 5.95 9.99999 6.05 9.75999C4.28 9.83999 2 10.16 2 12.18C2 15.5 9.84 19.57 16.05 19.57C20.81 19.57 22 17.42 22 15.72C22 14.38 20.85 12.86 18.77 11.96Z" stroke="black"/>
</svg>
