<svg width="24" height="24" viewBox="0 0 24 24" fill="none" xmlns="http://www.w3.org/2000/svg">
<path d="M11.9897 2C8.71241 2 6.05567 4.97455 6.05567 9.27428C6.05567 9.67047 6.07823 10.0641 6.12175 10.4522C5.79239 11.1584 5.45551 11.9827 5.13958 12.8752C4.125 15.7411 3.71072 18.2239 4.21427 18.4208C4.5328 18.5453 5.14231 17.7251 5.80402 16.3802C6.02451 18.0821 6.73438 19.4037 7.75827 20.319C6.74046 20.6749 6.05567 21.2581 6.05567 21.523C6.05567 21.9182 7.58003 22 9.46042 22C10.4729 22 11.3822 21.996 12.0059 21.9307C12.6295 21.996 13.5388 22 14.5513 22C16.4317 22 17.9561 21.9182 17.9561 21.523C17.9561 21.2561 17.2608 20.6659 16.2301 20.3109C17.2558 19.3899 17.9647 18.0597 18.1796 16.3468C18.8476 17.7115 19.4646 18.5463 19.7857 18.4208C20.2893 18.2239 19.875 15.7411 18.8604 12.8752C18.5391 11.9676 18.1962 11.1305 17.8615 10.4165C17.9025 10.0399 17.9236 9.6583 17.9236 9.27428C17.9236 4.97455 15.2669 2 11.9897 2Z" stroke="black" stroke-linejoin="round"/>
</svg>
