<svg width="24" height="24" viewBox="0 0 24 24" fill="none" xmlns="http://www.w3.org/2000/svg">
<path d="M8.2142 9.21726C9.00737 7.81987 10.5642 6.9944 12.167 7.12117M11.7435 16.7847C10.06 16.7954 8.48902 15.7557 7.85129 14.1917M16.244 14.6226C17.3493 13.2311 17.4372 11.2235 16.4526 9.73784M22 12C22 17.5228 17.5228 22 12 22C6.47715 22 2 17.5228 2 12C2 6.47715 6.47715 2 12 2C17.5228 2 22 6.47715 22 12ZM16.9049 7.41429C16.9049 8.49365 16.0299 9.36866 14.9505 9.36866C13.8711 9.36866 12.9961 8.49365 12.9961 7.41429C12.9961 6.33492 13.8711 5.45992 14.9505 5.45992C16.0299 5.45992 16.9049 6.33492 16.9049 7.41429ZM8.765 11.6998C8.765 12.7792 7.89 13.6542 6.81063 13.6542C5.73126 13.6542 4.85626 12.7792 4.85626 11.6998C4.85626 10.6204 5.73126 9.74543 6.81063 9.74543C7.89 9.74543 8.765 10.6204 8.765 11.6998ZM16.4652 16.741C16.4652 17.8204 15.5902 18.6954 14.5108 18.6954C13.4314 18.6954 12.5564 17.8204 12.5564 16.741C12.5564 15.6616 13.4314 14.7866 14.5108 14.7866C15.5902 14.7866 16.4652 15.6616 16.4652 16.741Z" stroke="black" stroke-linejoin="round"/>
</svg>
