<svg width="24" height="24" viewBox="0 0 24 24" fill="none" xmlns="http://www.w3.org/2000/svg">
<path d="M12 3H7C4.79086 3 3 4.79086 3 7V17C3 19.2091 4.79086 21 7 21H13.5M12 3H17C19.2091 3 21 4.79086 21 7V17C21 19.2091 19.2091 21 17 21H13.5M12 3L10.6825 11.344C10.5867 11.951 11.0558 12.5 11.6703 12.5H12.0571C12.5866 12.5 13.0243 12.9127 13.0554 13.4413L13.2597 16.9145M13.5 21L13.2597 16.9145M13.2597 16.9145C12.8573 16.9689 12.4364 17 12 17C8.5 17 6 15 6 15M13.2597 16.9145C16.0846 16.5323 18 15 18 15M7.5 7.5V10M16.5 7.5V10" stroke="black" stroke-linecap="round" stroke-linejoin="round"/>
</svg>
