<svg width="24" height="24" viewBox="0 0 24 24" fill="none" xmlns="http://www.w3.org/2000/svg">
<path d="M12 21C7.02944 21 3 16.9706 3 12C3 7.02944 7.02944 3 12 3C16.9706 3 21 7.02944 21 12C21 16.9706 16.9706 21 12 21ZM10.1486 11.6286C10.0532 11.867 10.0532 12.133 10.1486 12.3714L11.7679 16.4197C11.8517 16.6292 12.1483 16.6292 12.2321 16.4197L13.8514 12.3714C13.9468 12.133 13.9468 11.867 13.8514 11.6286L12.2321 7.5803C12.1483 7.37076 11.8517 7.37076 11.7679 7.5803L10.1486 11.6286Z" stroke="black" stroke-linejoin="round"/>
</svg>
