<svg width="24" height="24" viewBox="0 0 24 24" fill="none" xmlns="http://www.w3.org/2000/svg">
<path d="M8 17L3 20V10L8 7.00004M8 17V7.00004M8 17L20.7059 20V10C19.9107 9.8123 19.1715 9.63777 18.4704 9.47222M8 7.00004C9.69681 7.40068 11.1387 7.74112 12.5 8.06254M18.4704 6C18.4704 7.38071 15.9704 10 15.9704 10C15.9704 10 13.4704 7.38071 13.4704 6C13.4704 4.61929 14.5897 3.5 15.9704 3.5C17.3511 3.5 18.4704 4.61929 18.4704 6ZM16.4704 6C16.4704 6.27614 16.2465 6.5 15.9704 6.5C15.6943 6.5 15.4704 6.27614 15.4704 6C15.4704 5.72386 15.6943 5.5 15.9704 5.5C16.2465 5.5 16.4704 5.72386 16.4704 6Z" stroke="black" stroke-linecap="round" stroke-linejoin="round"/>
</svg>
