<svg width="24" height="24" viewBox="0 0 24 24" fill="none" xmlns="http://www.w3.org/2000/svg">
<path d="M10.5 10.0001L5.95692 14.1301C5.61876 14.4375 5.83624 15.0001 6.29326 15.0001H10.5M10.5 10.0001H6.27322C5.81879 10.0001 5.59999 9.44288 5.933 9.13366L11.6597 3.81598C11.8516 3.63784 12.1483 3.63784 12.3402 3.81598L18.0669 9.13366C18.3999 9.44287 18.1811 10.0001 17.7267 10.0001H13.5M10.5 10.0001H13.5M13.5 10.0001L18.043 14.1301C18.3812 14.4375 18.1637 15.0001 17.7067 15.0001H13.5M10.5 15.0001V20.0001C10.5 20.2762 10.7238 20.5001 11 20.5001H13C13.2761 20.5001 13.5 20.2762 13.5 20.0001V15.0001M10.5 15.0001H13.5" stroke="black" stroke-linecap="square" stroke-linejoin="round"/>
</svg>
