<svg width="24" height="24" viewBox="0 0 24 24" fill="none" xmlns="http://www.w3.org/2000/svg">
<path d="M17.5 18.4684C18.4394 18.8398 19 19.3086 19 19.8182C19 21.0232 15.866 22 12 22C8.13401 22 5 21.0232 5 19.8182C5 19.3086 5.56057 18.8398 6.5 18.4684M19 10C19 14.1958 14.0707 17.6874 12.485 18.702C12.1868 18.8929 11.8132 18.8929 11.515 18.702C9.92925 17.6874 5 14.1958 5 10C5 6.13401 8.13401 3 12 3C15.866 3 19 6.13401 19 10ZM15 10C15 11.6569 13.6569 13 12 13C10.3431 13 9 11.6569 9 10C9 8.34315 10.3431 7 12 7C13.6569 7 15 8.34315 15 10Z" stroke="black" stroke-linecap="round" stroke-linejoin="round"/>
</svg>
