<svg width="24" height="24" viewBox="0 0 24 24" fill="none" xmlns="http://www.w3.org/2000/svg">
<path d="M12 21C7.02944 21 3 16.9706 3 12C3 7.02944 7.02944 3 12 3C16.9706 3 21 7.02944 21 12C21 16.9706 16.9706 21 12 21ZM10.2109 12.604C10.2475 12.8582 10.3805 13.0885 10.5823 13.2473L14.0088 15.9436C14.1862 16.0831 14.4431 15.9348 14.4109 15.7114L13.7891 11.3958C13.7525 11.1417 13.6195 10.9114 13.4177 10.7526L9.99117 8.05629C9.81381 7.91674 9.55694 8.06504 9.58912 8.28841L10.2109 12.604Z" stroke="black" stroke-linejoin="round"/>
</svg>
