<svg width="24" height="24" viewBox="0 0 24 24" fill="none" xmlns="http://www.w3.org/2000/svg">
<path d="M16.9497 16.9498C14.2161 19.6835 9.7839 19.6835 7.05023 16.9498M16.9497 16.9498C19.6834 14.2162 19.6834 9.78402 16.9497 7.05035M16.9497 16.9498L19.7782 19.7783M7.05023 16.9498C4.31656 14.2162 4.31656 9.78402 7.05023 7.05035M7.05023 16.9498L4.2218 19.7783M7.05023 7.05035C9.7839 4.31668 14.2161 4.31668 16.9497 7.05035M7.05023 7.05035L4.2218 4.22192M16.9497 7.05035L19.7782 4.22192M14.1213 14.1214C12.9497 15.293 11.0502 15.293 9.87866 14.1214C8.70708 12.9498 8.70708 11.0504 9.87866 9.87878C11.0502 8.70721 12.9497 8.70721 14.1213 9.87878C15.2929 11.0504 15.2929 12.9498 14.1213 14.1214Z" stroke="black" stroke-linecap="round" stroke-linejoin="round"/>
</svg>
