<svg width="24" height="24" viewBox="0 0 24 24" fill="none" xmlns="http://www.w3.org/2000/svg">
<path d="M5.5447 16.1928L10.7088 12.8386C11.3159 12.4443 11.3159 11.5557 10.7088 11.1614L5.54471 7.80715C4.87943 7.37504 4 7.85249 4 8.64578V15.3542C4 16.1475 4.87943 16.6249 5.5447 16.1928Z" stroke="black" stroke-linejoin="round"/>
<path d="M16 16V8C16 7.44772 15.5523 7 15 7C14.4477 7 14 7.44771 14 8V16C14 16.5523 14.4477 17 15 17C15.5523 17 16 16.5523 16 16Z" stroke="black" stroke-linejoin="round"/>
<path d="M20 16V8C20 7.44772 19.5523 7 19 7C18.4477 7 18 7.44772 18 8V16C18 16.5523 18.4477 17 19 17C19.5523 17 20 16.5523 20 16Z" stroke="black" stroke-linejoin="round"/>
</svg>
