<svg width="24" height="24" viewBox="0 0 24 24" fill="none" xmlns="http://www.w3.org/2000/svg">
<path d="M15 6.01473H18M21 6.01473H18M18 3V6.01473M18 9L18 6.01473M13.4143 17.6569L6.3432 10.5858C4.78111 9.0237 4.78111 6.49104 6.3432 4.92894L7.05031 4.22184C7.44083 3.83131 8.074 3.83131 8.46452 4.22184L10.5858 6.34316C10.9764 6.73368 10.9764 7.36684 10.5858 7.75737L9.87874 8.46448C9.48821 8.855 9.48821 9.48817 9.87874 9.87869L14.1214 14.1213C14.5119 14.5119 15.1451 14.5119 15.5356 14.1213L16.2427 13.4142C16.6332 13.0237 17.2664 13.0237 17.6569 13.4142L19.7782 15.5355C20.1688 15.9261 20.1688 16.5592 19.7782 16.9498L19.0711 17.6569C17.509 19.219 14.9764 19.219 13.4143 17.6569Z" stroke="black" stroke-linecap="round" stroke-linejoin="round"/>
</svg>
