<svg width="24" height="24" viewBox="0 0 24 24" fill="none" xmlns="http://www.w3.org/2000/svg">
<path d="M6.3432 10.5858L13.4143 17.6569C14.9764 19.219 17.509 19.219 19.0711 17.6569L19.7782 16.9498C20.1688 16.5592 20.1688 15.9261 19.7782 15.5356L17.6569 13.4142C17.2664 13.0237 16.6332 13.0237 16.2427 13.4142L15.5356 14.1213C15.1451 14.5119 14.5119 14.5119 14.1214 14.1213L9.87874 9.8787C9.48821 9.48818 9.48821 8.85501 9.87874 8.46449L10.5858 7.75738C10.9764 7.36686 10.9764 6.73369 10.5858 6.34317L8.46452 4.22185C8.074 3.83132 7.44083 3.83132 7.05031 4.22185L6.3432 4.92896C4.78111 6.49105 4.78111 9.02371 6.3432 10.5858Z" stroke="black" stroke-linejoin="round"/>
</svg>
