<svg width="24" height="24" viewBox="0 0 24 24" fill="none" xmlns="http://www.w3.org/2000/svg">
<path d="M3 8V7C3 5.89543 3.89543 5 5 5H19C20.1046 5 21 5.89543 21 7V8M3 8H21M3 8V12M21 8V12M3 12V17C3 18.1046 3.89543 19 5 19H14M3 12H21M21 12V13M19.1587 17.6384C19.1587 17.9094 18.9431 18.1291 18.6772 18.1291C18.4113 18.1291 18.1957 17.9094 18.1957 17.6384C18.1957 17.3673 18.4113 17.1476 18.6772 17.1476C18.9431 17.1476 19.1587 17.3673 19.1587 17.6384ZM17.0827 15.4445C17.4521 15.5598 17.8465 15.3663 17.9884 15C18.235 14.3632 19.1194 14.3632 19.366 15C19.5079 15.3663 19.9023 15.5598 20.2718 15.4445C20.9141 15.244 21.4654 15.9486 21.1307 16.5422C20.9382 16.8837 21.0356 17.3185 21.3544 17.541C21.9087 17.9278 21.7119 18.8065 21.0478 18.9099C20.6659 18.9693 20.393 19.3181 20.4211 19.7108C20.4699 20.3936 19.6732 20.7847 19.1798 20.32C18.8961 20.0528 18.4584 20.0528 18.1746 20.32C17.6812 20.7847 16.8845 20.3936 16.9333 19.7108C16.9614 19.3181 16.6885 18.9693 16.3066 18.9099C15.6425 18.8065 15.4457 17.9278 16 17.541C16.3188 17.3185 16.4162 16.8837 16.2237 16.5422C15.889 15.9486 16.4403 15.244 17.0827 15.4445Z" stroke="black" stroke-linecap="round" stroke-linejoin="round"/>
</svg>
