<svg width="24" height="24" viewBox="0 0 24 24" fill="none" xmlns="http://www.w3.org/2000/svg">
<path d="M3 9.5V6H6.5M3 9.5H3.5C5.15685 9.5 6.5 8.15685 6.5 6.5V6M3 9.5V14.5M6.5 6H17.5M3 14.5V18H6.5M3 14.5H3.5C5.15685 14.5 6.5 15.8431 6.5 17.5V18M6.5 18H17.5M17.5 6H21V9.5M17.5 6V6.5C17.5 8.15685 18.8431 9.5 20.5 9.5H21M21 9.5V14.5M21 14.5V18H17.5M21 14.5H20.5C18.8431 14.5 17.5 15.8431 17.5 17.5V18M15 12C15 13.6569 13.6569 15 12 15C10.3431 15 9 13.6569 9 12C9 10.3431 10.3431 9 12 9C13.6569 9 15 10.3431 15 12Z" stroke="black" stroke-linejoin="round"/>
</svg>
