<svg width="24" height="24" viewBox="0 0 24 24" fill="none" xmlns="http://www.w3.org/2000/svg">
<path d="M3 9.5V6H6.5M3 9.5H3.5C5.15685 9.5 6.5 8.15685 6.5 6.5V6M3 9.5V14.5M6.5 6H17.5M3 14.5V18H6.5M3 14.5H3.5C5.15685 14.5 6.5 15.8431 6.5 17.5V18M6.5 18H14M17.5 6H21V9.5M17.5 6V6.5C17.5 8.15685 18.8431 9.5 20.5 9.5H21M21 9.5V12M16.2071 17.1742C16.6359 18.7746 18.2809 19.7244 19.8813 19.2956C20.7396 19.0656 21.4107 18.4859 21.7824 17.7509M16.2071 17.1742L17.4319 17.8813M16.2071 17.1742L15.5 18.399M22.0027 15.6213C21.5738 14.0209 19.9288 13.0712 18.3284 13.5C17.4702 13.73 16.7991 14.3097 16.4273 15.0447M22.0027 15.6213L22.7098 14.3966M22.0027 15.6213L20.7779 14.9142M15 12C15 13.6569 13.6569 15 12 15C10.3431 15 9 13.6569 9 12C9 10.3431 10.3431 9 12 9C13.6569 9 15 10.3431 15 12Z" stroke="black" stroke-linecap="round" stroke-linejoin="round"/>
</svg>
