<svg width="24" height="24" viewBox="0 0 24 24" fill="none" xmlns="http://www.w3.org/2000/svg">
<path d="M3 9.5V6H6.5M3 9.5H3.5C5.15685 9.5 6.5 8.15685 6.5 6.5V6M3 9.5V14.5M6.5 6H17.5M3 14.5V18H6.5M3 14.5H3.5C5.15685 14.5 6.5 15.8431 6.5 17.5V18M6.5 18H14M17.5 6H21V9.5M17.5 6V6.5C17.5 8.15685 18.8431 9.5 20.5 9.5H21M21 9.5V12M15 12C15 10.3431 13.6569 9 12 9C10.3431 9 9 10.3431 9 12C9 13.6569 10.3431 15 12 15C12.3506 15 12.6872 14.9398 13 14.8293M18.5 14.5V16.5L19.5 17.5M22 16.5C22 18.433 20.433 20 18.5 20C16.567 20 15 18.433 15 16.5C15 14.567 16.567 13 18.5 13C20.433 13 22 14.567 22 16.5Z" stroke="black" stroke-linecap="round" stroke-linejoin="round"/>
</svg>
