<svg width="24" height="24" viewBox="0 0 24 24" fill="none" xmlns="http://www.w3.org/2000/svg">
<path d="M3 8V7C3 5.89543 3.89543 5 5 5H19C20.1046 5 21 5.89543 21 7V8M3 8H21M3 8V12M21 8V12M3 12V17C3 18.1046 3.89543 19 5 19H15M3 12H21M21 12V13M21.5 17C21.5 15.6193 20.3807 14.5 19 14.5C17.6193 14.5 16.5 15.6193 16.5 17C16.5 18.3807 19 21.5 19 21.5C19 21.5 21.5 18.3807 21.5 17ZM19 17.5C18.7239 17.5 18.5 17.2761 18.5 17C18.5 16.7239 18.7239 16.5 19 16.5C19.2761 16.5 19.5 16.7239 19.5 17C19.5 17.2761 19.2761 17.5 19 17.5Z" stroke="black" stroke-linecap="round" stroke-linejoin="round"/>
</svg>
