<svg width="24" height="24" viewBox="0 0 24 24" fill="none" xmlns="http://www.w3.org/2000/svg">
<path d="M5.65219 10.3913C6.43654 10.1208 7 9.37621 7 8.5C7 7.39543 6.10457 6.5 5 6.5C3.89543 6.5 3 7.39543 3 8.5C3 9.60457 3.89543 10.5 5 10.5C5.22836 10.5 5.44777 10.4617 5.65219 10.3913ZM5.65219 10.3913L7.5 13.9013M7.5 13.9013C6.6033 14.4201 6 15.3896 6 16.5C6 18.1569 7.34315 19.5 9 19.5C10.6569 19.5 12 18.1569 12 16.5C12 15.4432 11.4535 14.514 10.6277 13.9795M7.5 13.9013C7.94126 13.6461 8.45357 13.5 9 13.5C9.60001 13.5 10.1589 13.6761 10.6277 13.9795M10.6277 13.9795L14 8.23244M14 8.23244C14.2942 8.40261 14.6357 8.5 15 8.5C15.2808 8.5 15.548 8.44215 15.7905 8.33772M14 8.23244C13.4022 7.88663 13 7.24028 13 6.5C13 5.39543 13.8954 4.5 15 4.5C16.1046 4.5 17 5.39543 17 6.5C17 7.32382 16.5019 8.0313 15.7905 8.33772M15.7905 8.33772L18.1442 12.6918M18.1442 12.6918C17.4678 13.0125 17 13.7016 17 14.5C17 15.6046 17.8954 16.5 19 16.5C20.1046 16.5 21 15.6046 21 14.5C21 13.3954 20.1046 12.5 19 12.5C18.6938 12.5 18.4037 12.5688 18.1442 12.6918Z" stroke="black" stroke-linejoin="round"/>
</svg>
