<svg width="24" height="24" viewBox="0 0 24 24" fill="none" xmlns="http://www.w3.org/2000/svg">
<path d="M13.0001 12C13.0001 12.5523 12.5524 13 12.0001 13C11.4478 13 11.0001 12.5523 11.0001 12C11.0001 11.4477 11.4478 11 12.0001 11C12.5524 11 13.0001 11.4477 13.0001 12ZM10.0003 15.4641C5.6957 12.9788 3.10154 9.41316 4.20611 7.49999C5.31068 5.58682 9.6957 6.05061 14.0003 8.53589C18.305 11.0212 20.8991 14.5868 19.7946 16.5C18.69 18.4132 14.305 17.9494 10.0003 15.4641ZM16 12C16 16.9706 14.2091 21 12 21C9.79086 21 8 16.9706 8 12C8 7.02944 9.79086 3 12 3C14.2091 3 16 7.02944 16 12ZM14.0002 15.4641C9.69557 17.9494 5.31055 18.4132 4.20598 16.5C3.10141 14.5868 5.69557 11.0212 10.0002 8.53589C14.3048 6.05061 18.6899 5.58682 19.7944 7.49999C20.899 9.41316 18.3048 12.9788 14.0002 15.4641Z" stroke="black" stroke-linejoin="round"/>
</svg>
