<svg width="24" height="24" viewBox="0 0 24 24" fill="none" xmlns="http://www.w3.org/2000/svg">
<path d="M19 13V4H5V20H14M8 4H12V10L10 8.5L8 10V4ZM19.1587 18.1384C19.1587 18.4094 18.9431 18.6291 18.6772 18.6291C18.4113 18.6291 18.1957 18.4094 18.1957 18.1384C18.1957 17.8673 18.4113 17.6476 18.6772 17.6476C18.9431 17.6476 19.1587 17.8673 19.1587 18.1384ZM17.0827 15.9445C17.4521 16.0598 17.8465 15.8663 17.9884 15.5C18.235 14.8632 19.1194 14.8632 19.366 15.5C19.5079 15.8663 19.9023 16.0598 20.2718 15.9445C20.9141 15.744 21.4654 16.4486 21.1307 17.0422C20.9382 17.3837 21.0356 17.8185 21.3544 18.041C21.9087 18.4278 21.7119 19.3065 21.0478 19.4099C20.6659 19.4693 20.393 19.8181 20.4211 20.2108C20.4699 20.8936 19.6732 21.2847 19.1798 20.82C18.8961 20.5528 18.4584 20.5528 18.1746 20.82C17.6812 21.2847 16.8845 20.8936 16.9333 20.2108C16.9614 19.8181 16.6885 19.4693 16.3066 19.4099C15.6425 19.3065 15.4457 18.4278 16 18.041C16.3188 17.8185 16.4162 17.3837 16.2237 17.0422C15.889 16.4486 16.4403 15.744 17.0827 15.9445Z" stroke="black" stroke-linecap="round" stroke-linejoin="round"/>
</svg>
