<svg width="24" height="24" viewBox="0 0 24 24" fill="none" xmlns="http://www.w3.org/2000/svg">
<path d="M4 5H20V16H12L7 20V16H4V5ZM11.4884 8C11.3465 8.36628 10.9521 8.55983 10.5827 8.44451C9.94034 8.24403 9.38897 8.94864 9.72369 9.54222C9.91622 9.88365 9.81882 10.3185 9.5 10.541C8.94572 10.9278 9.1425 11.8065 9.80656 11.9099C10.1885 11.9693 10.4614 12.3181 10.4333 12.7108C10.3845 13.3936 11.1812 13.7847 11.6746 13.32C11.9584 13.0528 12.3961 13.0528 12.6798 13.32C13.1732 13.7847 13.9699 13.3936 13.9211 12.7108C13.893 12.3181 14.1659 11.9693 14.5478 11.9099C15.2119 11.8065 15.4087 10.9278 14.8544 10.541C14.5356 10.3185 14.4382 9.88365 14.6307 9.54222C14.9654 8.94864 14.4141 8.24403 13.7718 8.44451C13.4023 8.55983 13.0079 8.36628 12.866 8C12.6194 7.36321 11.735 7.36321 11.4884 8Z" stroke="black" stroke-linejoin="round"/>
</svg>
