<svg width="24" height="24" viewBox="0 0 24 24" fill="none" xmlns="http://www.w3.org/2000/svg">
<path d="M21 12C21 16.9706 16.9706 21 12 21C7.02944 21 3 16.9706 3 12C3 7.02944 7.02944 3 12 3C16.9706 3 21 7.02944 21 12ZM9.8943 12.4749L9.16857 11.7212C8.77483 11.3124 8.1201 11.3128 7.72695 11.7223L7.16996 12.3023C6.7964 12.6913 6.79864 13.3065 7.17503 13.6928L9.89643 16.4858C10.2894 16.8891 10.9378 16.8886 11.3301 16.4846L17.2142 10.4248C17.5933 10.0344 17.5907 9.41253 17.2082 9.02539L16.6407 8.45087C16.246 8.05127 15.5997 8.05506 15.2097 8.45925L11.3342 12.4756C10.9408 12.8834 10.2874 12.8831 9.8943 12.4749Z" stroke="black" stroke-linejoin="round"/>
</svg>
