<svg width="24" height="24" viewBox="0 0 24 24" fill="none" xmlns="http://www.w3.org/2000/svg">
<path d="M3 18V6C3 4.34315 4.34315 3 6 3H18C19.6569 3 21 4.34315 21 6V18C21 19.6569 19.6569 21 18 21H6C4.34315 21 3 19.6569 3 18ZM12 9.87867L9.52513 7.40379C9.13461 7.01327 8.50144 7.01327 8.11092 7.40379L7.40381 8.1109C7.01329 8.50143 7.01329 9.13459 7.40381 9.52511L9.87868 12L7.40381 14.4749C7.01328 14.8654 7.01329 15.4986 7.40381 15.8891L8.11092 16.5962C8.50144 16.9867 9.13461 16.9867 9.52513 16.5962L12 14.1213L14.4749 16.5962C14.8654 16.9867 15.4986 16.9867 15.8891 16.5962L16.5962 15.8891C16.9867 15.4986 16.9867 14.8654 16.5962 14.4749L14.1213 12L16.5962 9.52511C16.9867 9.13459 16.9867 8.50143 16.5962 8.1109L15.8891 7.40379C15.4986 7.01327 14.8654 7.01327 14.4749 7.40379L12 9.87867Z" stroke="black" stroke-linejoin="round"/>
</svg>
