<svg width="24" height="24" viewBox="0 0 24 24" fill="none" xmlns="http://www.w3.org/2000/svg">
<path d="M21 12C21 16.9706 16.9706 21 12 21C7.02944 21 3 16.9706 3 12C3 7.02944 7.02944 3 12 3C16.9706 3 21 7.02944 21 12ZM10.5 10.5H7C6.44772 10.5 6 10.9477 6 11.5V12.5C6 13.0523 6.44772 13.5 7 13.5H10.5V17C10.5 17.5523 10.9477 18 11.5 18H12.5C13.0523 18 13.5 17.5523 13.5 17V13.5H17C17.5523 13.5 18 13.0523 18 12.5V11.5C18 10.9477 17.5523 10.5 17 10.5H13.5V7C13.5 6.44772 13.0523 6 12.5 6H11.5C10.9477 6 10.5 6.44772 10.5 7V10.5Z" stroke="black" stroke-linejoin="round"/>
</svg>
