<svg width="24" height="24" viewBox="0 0 24 24" fill="none" xmlns="http://www.w3.org/2000/svg">
<path d="M12 9.87868L8.11087 5.98959C7.72034 5.59907 7.08718 5.59907 6.69666 5.98959L5.98955 6.6967C5.59902 7.08722 5.59902 7.72039 5.98955 8.11091L9.87864 12L5.98955 15.8891C5.59902 16.2796 5.59902 16.9128 5.98955 17.3033L6.69666 18.0104C7.08718 18.4009 7.72034 18.4009 8.11087 18.0104L12 14.1213L15.889 18.0104C16.2796 18.4009 16.9127 18.4009 17.3033 18.0104L18.0104 17.3033C18.4009 16.9128 18.4009 16.2796 18.0104 15.8891L14.1213 12L18.0104 8.11091C18.4009 7.72039 18.4009 7.08723 18.0104 6.6967L17.3033 5.98959C16.9127 5.59907 16.2796 5.59907 15.889 5.98959L12 9.87868Z" stroke="black" stroke-linejoin="round"/>
</svg>
