<svg width="24" height="24" viewBox="0 0 24 24" fill="none" xmlns="http://www.w3.org/2000/svg">
<path d="M12 9.87868L9.52518 7.40381C9.13465 7.01329 8.50149 7.01329 8.11096 7.40381L7.40386 8.11092C7.01333 8.50144 7.01333 9.13461 7.40386 9.52513L9.87873 12L7.40386 14.4749C7.01333 14.8654 7.01333 15.4986 7.40386 15.8891L8.11096 16.5962C8.50149 16.9867 9.13465 16.9867 9.52518 16.5962L12 14.1213L14.4749 16.5962C14.8654 16.9867 15.4986 16.9867 15.8891 16.5962L16.5962 15.8891C16.9868 15.4986 16.9868 14.8654 16.5962 14.4749L14.1214 12L16.5962 9.52513C16.9868 9.13461 16.9868 8.50144 16.5962 8.11092L15.8891 7.40381C15.4986 7.01329 14.8654 7.01329 14.4749 7.40381L12 9.87868Z" stroke="black" stroke-linejoin="round"/>
</svg>
