<svg width="24" height="24" viewBox="0 0 24 24" fill="none" xmlns="http://www.w3.org/2000/svg">
<path d="M20 13C20 10.7909 19.1046 8.79086 17.6569 7.34315M12 6.77778V13M9 2.5H15.1111M20 5L17.6569 7.34315M17.6569 7.34315C16.2091 5.89543 14.2091 5 12 5C7.58172 5 4 8.58172 4 13C4 17.4183 7.58172 21 12 21C12.3387 21 12.6724 20.979 13 20.9381M21.125 18C21.125 16.3431 19.7539 15 18.0625 15C16.3711 15 15 16.3431 15 18C15 19.6569 16.3711 21 18.0625 21C18.8969 21 19.6534 20.6731 20.2058 20.1429M21.125 18L19.375 16.7143M21.125 18L22 15.8571" stroke="black" stroke-linecap="round" stroke-linejoin="round"/>
</svg>
