<svg width="24" height="24" viewBox="0 0 24 24" fill="none" xmlns="http://www.w3.org/2000/svg">
<path d="M20 13C20 10.7909 19.1046 8.79086 17.6569 7.34315M12 6.77778V13M9 2.5H15.1111M20 5L17.6569 7.34315M17.6569 7.34315C16.2091 5.89543 14.2091 5 12 5C7.58172 5 4 8.58172 4 13C4 17.4183 7.58172 21 12 21C12.3387 21 12.6724 20.979 13 20.9381M15 17H22V22H15V17ZM20 17V15.5C20 14.6716 19.3284 14 18.5 14C17.6716 14 17 14.6716 17 15.5V17H20Z" stroke="black" stroke-linecap="round" stroke-linejoin="round"/>
</svg>
