<svg width="24" height="24" viewBox="0 0 24 24" fill="none" xmlns="http://www.w3.org/2000/svg">
<path d="M20 13C20 10.7909 19.1046 8.79086 17.6569 7.34315M12 6.77778V13M9 2.5H15.1111M20 5L17.6569 7.34315M17.6569 7.34315C16.2091 5.89543 14.2091 5 12 5C7.58172 5 4 8.58172 4 13C4 17.4183 7.58172 21 12 21C12.3387 21 12.6724 20.979 13 20.9381M18.4815 18.1159C18.4815 18.387 18.2659 18.6067 18 18.6067C17.7341 18.6067 17.5185 18.387 17.5185 18.1159C17.5185 17.8449 17.7341 17.6252 18 17.6252C18.2659 17.6252 18.4815 17.8449 18.4815 18.1159ZM16.4055 15.9221C16.7749 16.0374 17.1693 15.8439 17.3112 15.4776C17.5578 14.8408 18.4422 14.8408 18.6888 15.4776C18.8307 15.8439 19.2251 16.0374 19.5945 15.9221C20.2369 15.7216 20.7882 16.4262 20.4535 17.0198C20.261 17.3612 20.3584 17.7961 20.6772 18.0186C21.2315 18.4054 21.0347 19.2841 20.3706 19.3875C19.9887 19.4469 19.7158 19.7957 19.7439 20.1884C19.7927 20.8712 18.996 21.2623 18.5026 20.7976C18.2189 20.5304 17.7811 20.5304 17.4974 20.7976C17.004 21.2623 16.2073 20.8712 16.2561 20.1884C16.2842 19.7957 16.0113 19.4469 15.6294 19.3875C14.9653 19.2841 14.7685 18.4054 15.3228 18.0186C15.6416 17.7961 15.739 17.3612 15.5465 17.0198C15.2118 16.4262 15.7631 15.7216 16.4055 15.9221Z" stroke="black" stroke-linecap="round" stroke-linejoin="round"/>
</svg>
