<svg width="24" height="24" viewBox="0 0 24 24" fill="none" xmlns="http://www.w3.org/2000/svg">
<path d="M17.2916 6C15.8814 4.75527 14.0289 4 12 4C7.58172 4 4 7.58172 4 12C4 14.3894 5.04751 16.5341 6.70835 18M17.2916 6L13.5 8.5L15 11L13.5 12L12 10L10 11L9 8L7 11L9.5 13L9 16L6.70835 18M17.2916 6C18.3456 6.93027 19.1526 8.13392 19.6016 9.5M6.70835 18C7.10577 18.3508 7.5383 18.6627 8 18.9297M8 18.9297L9 18H10V19.748M8 18.9297C8.61901 19.2878 9.29046 19.5653 10 19.748M10 19.748C10.6392 19.9125 11.3094 20 12 20C12.6782 20 13.3364 19.9122 13.9648 19.748M19.6016 9.5L17.5 11.5L15.5 13L17 14L18.5 12.5L19.9381 11M19.6016 9.5C19.7599 9.98145 19.8736 10.4831 19.9381 11M19.9381 11C20.0668 12.0322 19.9844 13.0462 19.7267 14M15 18L17.5 20L21 15.5" stroke="black" stroke-linecap="round" stroke-linejoin="round"/>
</svg>
