<svg width="24" height="24" viewBox="0 0 24 24" fill="none" xmlns="http://www.w3.org/2000/svg">
<path d="M12 4C7.02944 4 3 9.46243 3 12.5C4.7563 11.8289 5.74264 11.8109 7.5 12.5M12 4C16.9706 4 21 9.46243 21 12.5C19.2903 11.8228 18.2953 11.8782 16.5 12.5M12 4V2M12 4C8.57828 5.84775 7.59018 10.0515 7.5 12.5M12 4C15.4294 5.7619 16.4884 9.94425 16.5 12.5M12 4V12.5M12 12.5V19C12 20.3807 13.1193 21.5 14.5 21.5C15.8807 21.5 17 20.3807 17 19M12 12.5C10.2515 11.8874 9.25027 11.9029 7.5 12.5M12 12.5C13.8366 11.9623 14.8341 11.9075 16.5 12.5" stroke="black" stroke-linecap="round" stroke-linejoin="round"/>
</svg>
