<svg width="24" height="24" viewBox="0 0 24 24" fill="none" xmlns="http://www.w3.org/2000/svg">
<path d="M10 7H7C6.44772 7 6 7.44772 6 8V19C6 19.5523 6.44772 20 7 20H8M10 7V3H14V7M10 7H14M14 7H17C17.5523 7 18 7.44772 18 8V19C18 19.5523 17.5523 20 17 20H16M8 20V20.5C8 20.7761 8.22386 21 8.5 21C8.77614 21 9 20.7761 9 20.5V20M8 20H9M9 20H15M16 20V20.5C16 20.7761 15.7761 21 15.5 21C15.2239 21 15 20.7761 15 20.5V20M16 20H15M9 10V17M12 10V17M15 10V17" stroke="black" stroke-linecap="round" stroke-linejoin="round"/>
</svg>
