<svg width="24" height="24" viewBox="0 0 24 24" fill="none" xmlns="http://www.w3.org/2000/svg">
<path d="M5.93106 3.5H18.0689C18.5435 3.5 18.9282 3.88471 18.9282 4.35928C18.9282 4.77253 18.7793 5.17195 18.5087 5.48434L14.2441 10.4088C14.0866 10.5905 14 10.823 14 11.0634V19.382C14 20.1253 13.2177 20.6088 12.5528 20.2764L11.1056 19.5528C10.428 19.214 9.99998 18.5215 9.99998 17.7639V11.0634C9.99998 10.823 9.91333 10.5905 9.75591 10.4088L5.49123 5.48434C5.22069 5.17195 5.07178 4.77253 5.07178 4.35928C5.07178 3.88471 5.45649 3.5 5.93106 3.5Z" stroke="black" stroke-linejoin="round"/>
</svg>
