<svg width="24" height="24" viewBox="0 0 24 24" fill="none" xmlns="http://www.w3.org/2000/svg">
<path d="M18.5 4.5H14.5C13.9477 4.5 13.5 4.94772 13.5 5.5V9.5C13.5 10.0523 13.9477 10.5 14.5 10.5H18.5C19.0523 10.5 19.5 10.0523 19.5 9.5V5.5C19.5 4.94772 19.0523 4.5 18.5 4.5Z" stroke="black" stroke-linejoin="round"/>
<path d="M9.5 4.5H5.5C4.94772 4.5 4.5 4.94772 4.5 5.5V9.5C4.5 10.0523 4.94772 10.5 5.5 10.5H9.5C10.0523 10.5 10.5 10.0523 10.5 9.5V5.5C10.5 4.94772 10.0523 4.5 9.5 4.5Z" stroke="black" stroke-linejoin="round"/>
<path d="M9.5 13.5H5.5C4.94772 13.5 4.5 13.9477 4.5 14.5V18.5C4.5 19.0523 4.94772 19.5 5.5 19.5H9.5C10.0523 19.5 10.5 19.0523 10.5 18.5V14.5C10.5 13.9477 10.0523 13.5 9.5 13.5Z" stroke="black" stroke-linejoin="round"/>
<path d="M18.5 13.5H14.5C13.9477 13.5 13.5 13.9477 13.5 14.5V18.5C13.5 19.0523 13.9477 19.5 14.5 19.5H18.5C19.0523 19.5 19.5 19.0523 19.5 18.5V14.5C19.5 13.9477 19.0523 13.5 18.5 13.5Z" stroke="black" stroke-linejoin="round"/>
</svg>
