<svg width="24" height="24" viewBox="0 0 24 24" fill="none" xmlns="http://www.w3.org/2000/svg">
<path d="M13.7789 4.46168L14.1524 5.18854C14.5593 5.98043 15.4407 6.40798 16.3146 6.23735L17.1176 6.08056C18.6926 5.77302 19.9702 7.35233 19.3404 8.82834L18.9475 9.74936C18.6088 10.5432 18.8175 11.4647 19.4652 12.0351L20.2168 12.6971C21.4113 13.749 20.958 15.707 19.4228 16.1271L18.5353 16.3699C17.6912 16.6008 17.0953 17.3537 17.0644 18.2283L17.0318 19.147C16.9745 20.7668 15.1153 21.6492 13.8242 20.6695L13.209 20.2027C12.4942 19.6604 11.5058 19.6604 10.7911 20.2027L10.1759 20.6695C8.88473 21.6492 7.02553 20.7668 6.9682 19.147L6.93569 18.2283C6.90474 17.3537 6.30883 16.6008 5.46477 16.3699L4.57727 16.1271C3.04204 15.707 2.58878 13.749 3.78323 12.6971L4.53485 12.0351C5.18252 11.4647 5.39124 10.5432 5.05256 9.74936L4.65961 8.82834C4.02987 7.35233 5.30746 5.77302 6.88246 6.08056L7.68548 6.23736C8.5593 6.40798 9.4407 5.98043 9.84763 5.18854L10.2211 4.46168C10.9652 3.01383 13.0349 3.01383 13.7789 4.46168ZM12 15.5C13.6569 15.5 15 14.1568 15 12.5C15 10.8431 13.6569 9.49999 12 9.49999C10.3432 9.49999 9.00002 10.8431 9.00002 12.5C9.00002 14.1568 10.3432 15.5 12 15.5Z" stroke="black" stroke-linejoin="round"/>
</svg>
