<svg width="24" height="24" viewBox="0 0 24 24" fill="none" xmlns="http://www.w3.org/2000/svg">
<path d="M3 3H21V21H3V3ZM13.3646 6H10.6355V6.26602C10.6355 7.79678 8.98605 8.76009 7.65282 8.00794L7.36453 7.8453L6 10.1547L6.18328 10.2581C7.53966 11.0233 7.53966 12.9767 6.18328 13.7419L6.00005 13.8453L7.36458 16.1547L7.65282 15.9921C8.98605 15.2399 10.6355 16.2032 10.6355 17.734V18H13.3646V17.7341C13.3646 16.2033 15.0141 15.24 16.3473 15.9921L16.6354 16.1547L17.9999 13.8453L17.8167 13.7419C16.4603 12.9767 16.4603 11.0233 17.8167 10.2581L18 10.1547L16.6355 7.8453L16.3473 8.00788C15.0141 8.76003 13.3646 7.79672 13.3646 6.26596V6Z" stroke="black" stroke-linejoin="round"/>
<path d="M14.0468 12C14.0468 10.8954 13.1304 10 12 10C10.8696 10 9.95321 10.8954 9.95321 12C9.95321 13.1046 10.8696 14 12 14C13.1304 14 14.0468 13.1046 14.0468 12Z" stroke="black" stroke-linejoin="round"/>
</svg>
