<svg width="24" height="24" viewBox="0 0 24 24" fill="none" xmlns="http://www.w3.org/2000/svg">
<path d="M10 3H14V5.07177C14 6.61137 15.6667 7.57362 17 6.80382L18.7942 5.76794L20.7942 9.23205L19 10.268C17.6666 11.0378 17.6666 12.9623 19 13.7321L20.7941 14.7679L18.7941 18.232L17 17.1962C15.6667 16.4264 14 17.3887 14 18.9283V21H10V18.9282C10 17.3886 8.33337 16.4263 7.00003 17.1961L5.20577 18.232L3.20577 14.7679L4.99996 13.7321C6.33329 12.9623 6.33329 11.0378 4.99996 10.268L3.20569 9.23204L5.20569 5.76794L7.00004 6.80391C8.33337 7.57371 10 6.61146 10 5.07186V3ZM12 15C13.6568 15 15 13.6569 15 12C15 10.3431 13.6568 9 12 9C10.3431 9 8.99996 10.3431 8.99996 12C8.99996 13.6569 10.3431 15 12 15Z" stroke="black" stroke-linejoin="round"/>
</svg>
