<svg width="24" height="24" viewBox="0 0 24 24" fill="none" xmlns="http://www.w3.org/2000/svg">
<path d="M13.7143 3H10.2857L10.2857 5.44712C10.2857 6.33802 9.20854 6.78418 8.57858 6.15422L6.84819 4.42383L4.42383 6.8482L6.15424 8.57861C6.7842 9.20857 6.33804 10.2857 5.44713 10.2857H3V13.7143H5.44718C6.33809 13.7143 6.78426 14.7914 6.15429 15.4214L4.42393 17.1517L6.8483 19.5761L8.57858 17.8458C9.20854 17.2159 10.2857 17.662 10.2857 18.5529L10.2857 21H13.7143L13.7143 18.5528C13.7142 17.6619 14.7914 17.2158 15.4214 17.8457L17.1517 19.5761L19.5761 17.1518L17.8458 15.4214C17.2158 14.7914 17.662 13.7143 18.5529 13.7143H21V10.2857H18.5529C17.662 10.2857 17.2158 9.20857 17.8458 8.57861L19.5762 6.84819L17.1519 4.42383L15.4214 6.15432C14.7914 6.78429 13.7142 6.33811 13.7143 5.4472L13.7143 3Z" stroke="black" stroke-linejoin="round"/>
</svg>
