<svg width="24" height="24" viewBox="0 0 24 24" fill="none" xmlns="http://www.w3.org/2000/svg">
<path d="M14 3H10V5.07186C10 6.61146 8.33337 7.57371 7.00004 6.80391L5.20569 5.76794L3.20569 9.23204L4.99996 10.268C6.33329 11.0378 6.33329 12.9623 4.99996 13.7321L3.20577 14.7679L5.20577 18.232L7.00003 17.1961C8.33337 16.4263 10 17.3886 10 18.9282V21H14V18.9283C14 17.3887 15.6667 16.4264 17 17.1962L18.7941 18.232L20.7941 14.7679L19 13.7321C17.6666 12.9623 17.6666 11.0378 19 10.268L20.7942 9.23205L18.7942 5.76794L17 6.80382C15.6667 7.57362 14 6.61137 14 5.07177V3Z" stroke="black" stroke-linejoin="round"/>
</svg>
