<svg width="24" height="24" viewBox="0 0 24 24" fill="none" xmlns="http://www.w3.org/2000/svg">
<path d="M14.1524 5.18854L13.7789 4.46168C13.0349 3.01383 10.9652 3.01383 10.2211 4.46168L9.84763 5.18854C9.4407 5.98043 8.5593 6.40798 7.68548 6.23736L6.88246 6.08056C5.30746 5.77302 4.02987 7.35233 4.65961 8.82834L5.05256 9.74936C5.39124 10.5432 5.18252 11.4647 4.53485 12.0351L3.78323 12.6971C2.58878 13.749 3.04204 15.707 4.57727 16.1271L5.46477 16.3699C6.30883 16.6008 6.90474 17.3537 6.93569 18.2283L6.9682 19.147C7.02553 20.7668 8.88473 21.6492 10.1759 20.6695L10.7911 20.2027C11.5058 19.6604 12.4942 19.6604 13.209 20.2027L13.8242 20.6695C15.1153 21.6492 16.9745 20.7668 17.0318 19.147L17.0644 18.2283C17.0953 17.3537 17.6912 16.6008 18.5353 16.3699L19.4228 16.1271C20.958 15.707 21.4113 13.749 20.2168 12.6971L19.4652 12.0351C18.8175 11.4647 18.6088 10.5432 18.9475 9.74936L19.3404 8.82834C19.9702 7.35233 18.6926 5.77302 17.1176 6.08056L16.3146 6.23735C15.4407 6.40798 14.5593 5.98043 14.1524 5.18854Z" stroke="black" stroke-linejoin="round"/>
</svg>
