<svg width="24" height="24" viewBox="0 0 24 24" fill="none" xmlns="http://www.w3.org/2000/svg">
<path fill-rule="evenodd" clip-rule="evenodd" d="M10.2857 3H13.7143L13.7143 5.4472C13.7142 6.33811 14.7914 6.78429 15.4214 6.15432L17.1519 4.42383L19.5762 6.84819L17.8458 8.57861C17.2158 9.20857 17.662 10.2857 18.5529 10.2857H21V13.7143H18.5529C17.662 13.7143 17.2158 14.7914 17.8458 15.4214L19.5761 17.1518L17.1517 19.5761L15.4214 17.8457C14.7914 17.2158 13.7142 17.6619 13.7143 18.5528L13.7143 21H10.2857L10.2857 18.5529C10.2857 17.662 9.20854 17.2159 8.57858 17.8458L6.8483 19.5761L4.42393 17.1517L6.15429 15.4214C6.78426 14.7914 6.33809 13.7143 5.44718 13.7143H3L3 10.2857H5.44713C6.33804 10.2857 6.7842 9.20857 6.15424 8.57861L4.42383 6.8482L6.84819 4.42383L8.57858 6.15422C9.20854 6.78418 10.2857 6.33802 10.2857 5.44712L10.2857 3ZM12 15C13.6569 15 15 13.6569 15 12C15 10.3431 13.6569 9 12 9C10.3431 9 9 10.3431 9 12C9 13.6569 10.3431 15 12 15Z" stroke="black" stroke-linejoin="round"/>
</svg>
