<svg width="24" height="24" viewBox="0 0 24 24" fill="none" xmlns="http://www.w3.org/2000/svg">
<path d="M12 3V14M12 21V17M12 14H10C9.44772 14 9 14.4477 9 15V16C9 16.5523 9.44772 17 10 17H12M12 14H14C14.5523 14 15 14.4477 15 15V16C15 16.5523 14.5523 17 14 17H12M6 3V7M6 21V10M18 3V7M18 21V10M4 10H8C8.55228 10 9 9.55228 9 9V8C9 7.44772 8.55228 7 8 7H4C3.44772 7 3 7.44772 3 8V9C3 9.55228 3.44772 10 4 10ZM16 10H20C20.5523 10 21 9.55228 21 9V8C21 7.44772 20.5523 7 20 7H16C15.4477 7 15 7.44772 15 8V9C15 9.55228 15.4477 10 16 10Z" stroke="black" stroke-linecap="round" stroke-linejoin="round"/>
</svg>
