<svg width="24" height="24" viewBox="0 0 24 24" fill="none" xmlns="http://www.w3.org/2000/svg">
<path d="M17.0904 14H18.9097V14.9208C18.9097 15.6051 19.6678 16.0327 20.2742 15.6906L21.0903 15.2302L22 16.7698L21.1839 17.2302C20.5774 17.5723 20.5774 18.4277 21.1839 18.7698L22 19.2302L21.0903 20.7698L20.2742 20.3094C19.6678 19.9673 18.9097 20.395 18.9097 21.0792V22H17.0904V21.0792C17.0904 20.3949 16.3323 19.9673 15.7258 20.3094L14.9097 20.7698L14 19.2302L14.8161 18.7698C15.4226 18.4277 15.4226 17.5723 14.8161 17.2302L14 16.7698L14.9097 15.2302L15.7258 15.6906C16.3323 16.0328 17.0904 15.6051 17.0904 14.9208V14ZM18 19C18.5523 19 19 18.5523 19 18C19 17.4477 18.5523 17 18 17C17.4477 17 17 17.4477 17 18C17 18.5523 17.4477 19 18 19Z" stroke="black" stroke-linejoin="round"/>
</svg>
