<svg width="24" height="24" viewBox="0 0 24 24" fill="none" xmlns="http://www.w3.org/2000/svg">
<path d="M14.196 9.99996V4.99996L10.9999 3.15466V6.99996L8.99986 7.99996L6.99986 6.99996V3.15466L3.80371 4.99996V9.99996L7 11.8453V20L9 21L11 20V11.8452L14.196 9.99996Z" stroke="black" stroke-linejoin="round"/>
<path d="M18.9097 14H17.0904V14.9208C17.0904 15.6051 16.3323 16.0328 15.7258 15.6906L14.9097 15.2302L14 16.7698L14.8161 17.2302C15.4226 17.5723 15.4226 18.4277 14.8161 18.7698L14 19.2302L14.9097 20.7698L15.7258 20.3094C16.3323 19.9673 17.0904 20.3949 17.0904 21.0792V22H18.9097V21.0792C18.9097 20.395 19.6678 19.9673 20.2742 20.3094L21.0903 20.7698L22 19.2302L21.1839 18.7698C20.5774 18.4277 20.5774 17.5723 21.1839 17.2302L22 16.7698L21.0903 15.2302L20.2742 15.6906C19.6678 16.0327 18.9097 15.6051 18.9097 14.9208V14Z" stroke="black" stroke-linejoin="round"/>
</svg>
