<svg width="24" height="24" viewBox="0 0 24 24" fill="none" xmlns="http://www.w3.org/2000/svg">
<path d="M16.8666 15.8908C16.3308 16.4327 16 17.1777 16 18C16 19.6569 17.3431 21 19 21C19.8033 21 20.5329 20.6843 21.0714 20.1701M16.8666 15.8908C17.4104 15.3408 18.1654 15 19 15C20.6569 15 22 16.3431 22 18C22 18.8535 21.6435 19.6238 21.0714 20.1701M16.8666 15.8908L21.0714 20.1701M15 14.3309C14.1352 14.1263 13.1398 14 12 14C7.89556 14 5.66294 15.6379 4.66192 16.6727C4.17795 17.1731 4 17.8662 4 18.5623V19C4 19.5523 4.44772 20 5 20H14M16 8C16 10.2091 14.2091 12 12 12C9.79086 12 8 10.2091 8 8C8 5.79086 9.79086 4 12 4C14.2091 4 16 5.79086 16 8Z" stroke="black" stroke-linecap="round" stroke-linejoin="round"/>
</svg>
