<svg width="24" height="24" viewBox="0 0 24 24" fill="none" xmlns="http://www.w3.org/2000/svg">
<path d="M13 20H5C4.44772 20 4 19.5523 4 19V18.5623C4 17.8662 4.17795 17.1731 4.66192 16.6727C5.66294 15.6379 7.89556 14 12 14C12.9262 14 13.7571 14.0834 14.5 14.2245M16 8C16 10.2091 14.2091 12 12 12C9.79086 12 8 10.2091 8 8C8 5.79086 9.79086 4 12 4C14.2091 4 16 5.79086 16 8ZM18.78 18.1882C18.78 18.4643 18.5561 18.6882 18.28 18.6882C18.0038 18.6882 17.78 18.4643 17.78 18.1882C17.78 17.9121 18.0038 17.6882 18.28 17.6882C18.5561 17.6882 18.78 17.9121 18.78 18.1882ZM16.6242 15.9529C17.0079 16.0704 17.4174 15.8732 17.5647 15.5C17.8208 14.8512 18.7391 14.8512 18.9952 15.5C19.1426 15.8732 19.5521 16.0704 19.9357 15.9529C20.6027 15.7486 21.1752 16.4666 20.8276 17.0714C20.6277 17.4192 20.7289 17.8623 21.0599 18.089C21.6355 18.4831 21.4311 19.3784 20.7416 19.4837C20.345 19.5443 20.0616 19.8997 20.0908 20.2998C20.1415 20.9955 19.3142 21.394 18.8019 20.9205C18.5072 20.6482 18.0527 20.6482 17.758 20.9205C17.2457 21.394 16.4184 20.9955 16.4692 20.2998C16.4983 19.8997 16.215 19.5443 15.8183 19.4837C15.1288 19.3784 14.9244 18.4831 15.5 18.089C15.8311 17.8623 15.9322 17.4192 15.7323 17.0714C15.3847 16.4666 15.9572 15.7486 16.6242 15.9529Z" stroke="black" stroke-linecap="round" stroke-linejoin="round"/>
</svg>
