<svg width="24" height="24" viewBox="0 0 24 24" fill="none" xmlns="http://www.w3.org/2000/svg">
<path d="M17 12C18.6569 12 20 10.6569 20 9C20 7.34315 18.6569 6 17 6M7 12C5.34315 12 4 10.6569 4 9C4 7.34315 5.34315 6 7 6M21 18H22.25C22.6642 18 23 17.6642 23 17.25V16.9217C23 16.3996 22.8665 15.8798 22.5036 15.5045C21.8385 14.817 20.4486 13.7745 18 13.5455M3 18H1.75C1.33579 18 1 17.6642 1 17.25V16.9217C1 16.3996 1.13346 15.8798 1.49644 15.5045C2.16151 14.817 3.55143 13.7745 6 13.5455M15.5 8.5C15.5 7.85862 15.3275 7.25753 15.0263 6.74062C14.4198 5.69964 13.2916 5 12 5C10.7084 5 9.58018 5.69964 8.97369 6.74062C8.67252 7.25753 8.5 7.85862 8.5 8.5C8.5 9.39166 8.83343 10.2054 9.38241 10.8235C10.0235 11.5452 10.9587 12 12 12C13.0413 12 13.9765 11.5452 14.6176 10.8235C15.1666 10.2054 15.5 9.39166 15.5 8.5ZM12 13.75C12.7748 13.75 13.4734 13.8167 14.1013 13.9304C16.3841 14.3438 17.7339 15.3785 18.4208 16.0886C18.8443 16.5264 19 17.1329 19 17.742V18V18.125C19 18.6082 18.6082 19 18.125 19H5.875C5.39175 19 5 18.6082 5 18.125V18V17.742C5 17.1329 5.15571 16.5264 5.57918 16.0886C6.26611 15.3785 7.61587 14.3438 9.89868 13.9304C10.5266 13.8167 11.2252 13.75 12 13.75Z" stroke="black" stroke-linecap="round" stroke-linejoin="round"/>
</svg>
