<svg width="24" height="24" viewBox="0 0 24 24" fill="none" xmlns="http://www.w3.org/2000/svg">
<path d="M17 4H23M16.5 15.2634C16.6615 15.2546 16.8281 15.25 17 15.25C19.5653 15.25 20.9607 16.2737 21.5863 16.9205C21.8888 17.2332 22 17.6663 22 18.1014V18.375C22 18.7202 21.7202 19 21.375 19H18M12.5 9.5C12.5 11.433 10.933 13 9 13C7.067 13 5.5 11.433 5.5 9.5C5.5 7.567 7.067 6 9 6C10.933 6 12.5 7.567 12.5 9.5ZM9 14.75C5.40861 14.75 3.45507 16.1831 2.57918 17.0886C2.15571 17.5264 2 18.1329 2 18.742V19.125C2 19.6082 2.39175 20 2.875 20H15.125C15.6082 20 16 19.6082 16 19.125V18.742C16 18.1329 15.8443 17.5264 15.4208 17.0886C14.5449 16.1831 12.5914 14.75 9 14.75ZM19.5 11C19.5 12.3807 18.3807 13.5 17 13.5C15.6193 13.5 14.5 12.3807 14.5 11C14.5 9.61929 15.6193 8.5 17 8.5C18.3807 8.5 19.5 9.61929 19.5 11Z" stroke="black" stroke-linecap="round" stroke-linejoin="round"/>
</svg>
