<svg width="24" height="24" viewBox="0 0 24 24" fill="none" xmlns="http://www.w3.org/2000/svg">
<path d="M8 3H3V8M8 21H3V16M16 3H21V8M16 21H21V16M15 9C15 10.6569 13.6569 12 12 12C10.3431 12 9 10.6569 9 9C9 7.34315 10.3431 6 12 6C13.6569 6 15 7.34315 15 9ZM12 13.5C8.92167 13.5 7.2472 14.7284 6.49644 15.5045C6.13346 15.8798 6 16.3996 6 16.9217V17.25C6 17.6642 6.33579 18 6.75 18H17.25C17.6642 18 18 17.6642 18 17.25V16.9217C18 16.3996 17.8665 15.8798 17.5036 15.5045C16.7528 14.7284 15.0783 13.5 12 13.5Z" stroke="black" stroke-linecap="round" stroke-linejoin="round"/>
</svg>
