<svg width="24" height="24" viewBox="0 0 24 24" fill="none" xmlns="http://www.w3.org/2000/svg">
<path d="M21 21L19.25 19.25M14 14.1405C13.3892 14.0509 12.7237 14 12 14C7.89556 14 5.66294 15.6379 4.66192 16.6727C4.17795 17.1731 4 17.8662 4 18.5623V19C4 19.5523 4.44772 20 5 20H13M16 8C16 10.2091 14.2091 12 12 12C9.79086 12 8 10.2091 8 8C8 5.79086 9.79086 4 12 4C14.2091 4 16 5.79086 16 8ZM20 17.5C20 18.8807 18.8807 20 17.5 20C16.1193 20 15 18.8807 15 17.5C15 16.1193 16.1193 15 17.5 15C18.8807 15 20 16.1193 20 17.5Z" stroke="black" stroke-linecap="round" stroke-linejoin="round"/>
</svg>
