<svg width="24" height="24" viewBox="0 0 24 24" fill="none" xmlns="http://www.w3.org/2000/svg">
<path d="M12 12C14.2091 12 16 10.2091 16 8C16 5.79086 14.2091 4 12 4C9.79086 4 8 5.79086 8 8C8 10.2091 9.79086 12 12 12Z" stroke="black" stroke-linejoin="round"/>
<path d="M20 19V18.5623C20 17.8661 19.8221 17.1731 19.3381 16.6727C18.3371 15.6379 16.1044 14 12 14C7.89556 14 5.66294 15.6379 4.66192 16.6727C4.17795 17.1731 4 17.8661 4 18.5623V19C4 19.5523 4.44772 20 5 20H19C19.5523 20 20 19.5523 20 19Z" stroke="black" stroke-linejoin="round"/>
</svg>
