<svg width="24" height="24" viewBox="0 0 24 24" fill="none" xmlns="http://www.w3.org/2000/svg">
<path d="M6 18.7083C7.59227 20.1334 9.69494 21 12 21C14.3051 21 16.4077 20.1334 18 18.7083M6 18.7083C4.15875 17.0604 3 14.6655 3 12C3 7.02944 7.02944 3 12 3C16.9706 3 21 7.02944 21 12C21 14.6655 19.8412 17.0604 18 18.7083M6 18.7083V18.25V17.9217C6 17.3996 6.13346 16.8798 6.49644 16.5045C7.2472 15.7284 8.92167 14.5 12 14.5C15.0783 14.5 16.7528 15.7284 17.5036 16.5045C17.8665 16.8798 18 17.3996 18 17.9217V18.25V18.7083M15 10C15 11.6569 13.6569 13 12 13C10.3431 13 9 11.6569 9 10C9 8.34315 10.3431 7 12 7C13.6569 7 15 8.34315 15 10Z" stroke="black" stroke-linejoin="round"/>
</svg>
