<svg width="24" height="24" viewBox="0 0 24 24" fill="none" xmlns="http://www.w3.org/2000/svg">
<path d="M18 18H21.375C21.7202 18 22 17.7202 22 17.375V17.1014C22 16.6663 21.8888 16.2332 21.5863 15.9205C20.9607 15.2737 19.5653 14.25 17 14.25C16.8281 14.25 16.6615 14.2546 16.5 14.2634M12.5 8.5C12.5 10.433 10.933 12 9 12C7.067 12 5.5 10.433 5.5 8.5C5.5 6.567 7.067 5 9 5C10.933 5 12.5 6.567 12.5 8.5ZM9 13.75C5.40861 13.75 3.45507 15.1831 2.57918 16.0886C2.15571 16.5264 2 17.1329 2 17.742V18.125C2 18.6082 2.39175 19 2.875 19H15.125C15.6082 19 16 18.6082 16 18.125V17.742C16 17.1329 15.8443 16.5264 15.4208 16.0886C14.5449 15.1831 12.5914 13.75 9 13.75ZM19.5 10C19.5 11.3807 18.3807 12.5 17 12.5C15.6193 12.5 14.5 11.3807 14.5 10C14.5 8.61929 15.6193 7.5 17 7.5C18.3807 7.5 19.5 8.61929 19.5 10Z" stroke="black" stroke-linecap="round" stroke-linejoin="round"/>
</svg>
