<svg width="24" height="24" viewBox="0 0 24 24" fill="none" xmlns="http://www.w3.org/2000/svg">
<path d="M15 14.3309C14.1352 14.1263 13.1398 14 12 14C7.89556 14 5.66294 15.6379 4.66192 16.6727C4.17795 17.1731 4 17.8662 4 18.5623V19C4 19.5523 4.44772 20 5 20H14M16 8C16 10.2091 14.2091 12 12 12C9.79086 12 8 10.2091 8 8C8 5.79086 9.79086 4 12 4C14.2091 4 16 5.79086 16 8ZM23 18C23 18 21.5 15 19 15C16.5 15 15 18 15 18C15 18 16.5 21 19 21C21.5 21 23 18 23 18ZM19 19C18.4477 19 18 18.5523 18 18C18 17.4477 18.4477 17 19 17C19.5523 17 20 17.4477 20 18C20 18.5523 19.5523 19 19 19Z" stroke="black" stroke-linecap="round" stroke-linejoin="round"/>
</svg>
