<svg width="24" height="24" viewBox="0 0 24 24" fill="none" xmlns="http://www.w3.org/2000/svg">
<path d="M10 11V13.5351C8.8044 14.2267 8 15.5194 8 17C8 19.2091 9.79086 21 12 21C14.2091 21 16 19.2091 16 17C16 15.5194 15.1956 14.2267 14 13.5351V5C14 3.89543 13.1046 3 12 3C10.8954 3 10 3.89543 10 5V7M10 11V9M10 11H12M10 9V7M10 9H12M10 7H12M13 17C13 17.5523 12.5523 18 12 18C11.4477 18 11 17.5523 11 17C11 16.4477 11.4477 16 12 16C12.5523 16 13 16.4477 13 17Z" stroke="black" stroke-linecap="round" stroke-linejoin="round"/>
</svg>
